<svg width="20" height="20" viewBox="0 0 20 20" fill="none" xmlns="http://www.w3.org/2000/svg">
<path fill-rule="evenodd" clip-rule="evenodd" d="M16.25 11.125C16.375 11.875 16.5 12.5 16.75 13.25L17.5 15.375L16.875 16.25H12.5C12.5 16.875 12.25 17.5 11.75 18C11.25 18.5 10.625 18.75 10 18.75C9.375 18.75 8.625 18.5 8.25 18C7.75 17.5 7.5 16.875 7.5 16.25H3.125L2.5 15.375L3.25 13.25C3.5 12.25 3.75 11.25 3.75 10.25V7.5C3.75 6.625 3.875 5.75 4.25 5C4.625 4.125 5.125 3.5 5.75 2.875C6.375 2.25 7.125 1.875 8 1.625C8.625 1.375 9.375 1.25 10 1.25C9.75 1.625 9.5 2.125 9.25 2.625C9 2.625 8.75 2.625 8.375 2.875C7.75 3 7.125 3.375 6.625 3.875C6.125 4.25 5.625 4.875 5.375 5.5C5.125 6.125 5 6.75 5 7.5V10.25C5 11.375 4.75 12.5 4.5 13.625L4 15H16L15.5 13.625C15.2812 12.9675 15.1575 12.2125 15.0462 11.5325L15 11.25C15.5 11.25 15.875 11.25 16.25 11.125ZM10 17.5C10.25 17.5 10.625 17.375 10.875 17.125C11.125 16.875 11.25 16.625 11.25 16.25H8.75C8.75 16.625 8.875 16.875 9.125 17.125C9.375 17.375 9.75 17.5 10 17.5ZM18.75 5C18.75 5.99456 18.3549 6.94839 17.6516 7.65165C16.9484 8.35491 15.9946 8.75 15 8.75C14.0054 8.75 13.0516 8.35491 12.3483 7.65165C11.6451 6.94839 11.25 5.99456 11.25 5C11.25 4.00544 11.6451 3.05161 12.3483 2.34835C13.0516 1.64509 14.0054 1.25 15 1.25C15.9946 1.25 16.9484 1.64509 17.6516 2.34835C18.3549 3.05161 18.75 4.00544 18.75 5Z" fill="#717171"/>
<ellipse cx="15.0002" cy="4.99998" rx="4.16667" ry="4.16667" fill="#DF5532"/>
</svg>
