<svg width="11" height="11" viewBox="0 0 11 11" fill="none" xmlns="http://www.w3.org/2000/svg">
<path d="M5.35485 1.00409C4.49431 1.00409 3.6531 1.25927 2.93759 1.73735C2.22209 2.21544 1.66442 2.89497 1.3351 3.69C1.00579 4.48502 0.919628 5.35985 1.08751 6.20385C1.25539 7.04785 1.66978 7.82311 2.27827 8.4316C2.88676 9.04009 3.66202 9.45448 4.50602 9.62236C5.35002 9.79024 6.22485 9.70408 7.01988 9.37477C7.81491 9.04546 8.49443 8.48779 8.97252 7.77228C9.45061 7.05677 9.70578 6.21556 9.70578 5.35503C9.70457 4.20146 9.24577 3.09549 8.43008 2.27979C7.61438 1.4641 6.50841 1.00531 5.35485 1.00409ZM7.69766 5.68971H5.35485C5.26608 5.68971 5.18095 5.65445 5.11819 5.59169C5.05542 5.52892 5.02016 5.44379 5.02016 5.35503V3.01221C5.02016 2.92345 5.05542 2.83832 5.11819 2.77555C5.18095 2.71279 5.26608 2.67753 5.35485 2.67753C5.44361 2.67753 5.52874 2.71279 5.59151 2.77555C5.65427 2.83832 5.68953 2.92345 5.68953 3.01221V5.02034H7.69766C7.78642 5.02034 7.87155 5.0556 7.93432 5.11837C7.99708 5.18113 8.03235 5.26626 8.03235 5.35503C8.03235 5.44379 7.99708 5.52892 7.93432 5.59169C7.87155 5.65445 7.78642 5.68971 7.69766 5.68971Z" fill="#666666"/>
</svg>
