<svg width="26" height="26" viewBox="0 0 26 26" fill="none" xmlns="http://www.w3.org/2000/svg">
<g clip-path="url(#clip0_742_3075)">
<path d="M18.9287 7.55371L20.0713 8.69629L10.5625 18.2051L5.92871 13.5713L7.07129 12.4287L10.5625 15.9199L18.9287 7.55371ZM13 0C14.1934 0 15.3444 0.152344 16.4531 0.457031C17.5618 0.761719 18.5986 1.19759 19.5635 1.76465C20.5283 2.33171 21.4043 3.00879 22.1914 3.7959C22.9785 4.58301 23.6556 5.46322 24.2227 6.43652C24.7897 7.40983 25.2256 8.44661 25.5303 9.54688C25.835 10.6471 25.9915 11.7982 26 13C26 14.1934 25.8477 15.3444 25.543 16.4531C25.2383 17.5618 24.8024 18.5986 24.2354 19.5635C23.6683 20.5283 22.9912 21.4043 22.2041 22.1914C21.417 22.9785 20.5368 23.6556 19.5635 24.2227C18.5902 24.7897 17.5534 25.2256 16.4531 25.5303C15.3529 25.835 14.2018 25.9915 13 26C11.8066 26 10.6556 25.8477 9.54688 25.543C8.43815 25.2383 7.40137 24.8024 6.43652 24.2354C5.47168 23.6683 4.5957 22.9912 3.80859 22.2041C3.02148 21.417 2.3444 20.5368 1.77734 19.5635C1.21029 18.5902 0.774414 17.5576 0.469727 16.4658C0.165039 15.374 0.00846354 14.2188 0 13C0 11.8066 0.152344 10.6556 0.457031 9.54688C0.761719 8.43815 1.19759 7.40137 1.76465 6.43652C2.33171 5.47168 3.00879 4.5957 3.7959 3.80859C4.58301 3.02148 5.46322 2.3444 6.43652 1.77734C7.40983 1.21029 8.44238 0.774414 9.53418 0.469727C10.626 0.165039 11.7812 0.00846354 13 0ZM13 24.375C14.041 24.375 15.0439 24.2396 16.0088 23.9688C16.9736 23.6979 17.8792 23.3171 18.7256 22.8262C19.5719 22.3353 20.3421 21.7386 21.0361 21.0361C21.7301 20.3337 22.3226 19.5677 22.8135 18.7383C23.3044 17.9089 23.6895 17.0033 23.9688 16.0215C24.248 15.0397 24.3835 14.0326 24.375 13C24.375 11.959 24.2396 10.9561 23.9688 9.99121C23.6979 9.02637 23.3171 8.12077 22.8262 7.27441C22.3353 6.42806 21.7386 5.65788 21.0361 4.96387C20.3337 4.26986 19.5677 3.67741 18.7383 3.18652C17.9089 2.69564 17.0033 2.31055 16.0215 2.03125C15.0397 1.75195 14.0326 1.61654 13 1.625C11.959 1.625 10.9561 1.76042 9.99121 2.03125C9.02637 2.30208 8.12077 2.68294 7.27441 3.17383C6.42806 3.66471 5.65788 4.26139 4.96387 4.96387C4.26986 5.66634 3.67741 6.43229 3.18652 7.26172C2.69564 8.09115 2.31055 8.99674 2.03125 9.97852C1.75195 10.9603 1.61654 11.9674 1.625 13C1.625 14.041 1.76042 15.0439 2.03125 16.0088C2.30208 16.9736 2.68294 17.8792 3.17383 18.7256C3.66471 19.5719 4.26139 20.3421 4.96387 21.0361C5.66634 21.7301 6.43229 22.3226 7.26172 22.8135C8.09115 23.3044 8.99674 23.6895 9.97852 23.9688C10.9603 24.248 11.9674 24.3835 13 24.375Z" fill="black"/>
</g>
<defs>
<clipPath id="clip0_742_3075">
<rect width="26" height="26"/>
</clipPath>
</defs>
</svg>
