<svg width="20" height="21" viewBox="0 0 20 21" fill="none" xmlns="http://www.w3.org/2000/svg">
<path d="M8.33795 11.9597L8.69192 12.3137L9.04547 11.9593L12.619 8.37744C12.6192 8.37723 12.6194 8.37703 12.6196 8.37682C12.682 8.31512 12.7662 8.28051 12.854 8.28051C12.9421 8.28051 13.0266 8.31536 13.089 8.37744L13.0894 8.37784C13.1207 8.40883 13.1454 8.44569 13.1624 8.48631L13.6239 8.29402L13.1624 8.48631C13.1793 8.52693 13.188 8.5705 13.188 8.6145C13.188 8.65851 13.1793 8.70208 13.1624 8.74269L13.6239 8.93498L13.1624 8.7427C13.1454 8.78331 13.1207 8.82018 13.0894 8.85117L13.088 8.85262L8.92274 13.0178C8.92255 13.018 8.92237 13.0182 8.92219 13.0184C8.86016 13.0796 8.77659 13.1141 8.6894 13.1145L8.68862 13.1145C8.64475 13.1148 8.60126 13.1064 8.56065 13.0898C8.52042 13.0733 8.48379 13.0492 8.45283 13.0187C8.45254 13.0184 8.45224 13.0181 8.45195 13.0178L6.49581 11.0534L6.48181 11.0393L6.46673 11.0264C6.43184 10.9965 6.4035 10.9597 6.38349 10.9184C6.36349 10.877 6.35224 10.832 6.35047 10.7861C6.3487 10.7402 6.35643 10.6944 6.37319 10.6516C6.38995 10.6088 6.41537 10.57 6.44785 10.5375C6.48034 10.505 6.51919 10.4796 6.56196 10.4629C6.60474 10.4461 6.65051 10.4384 6.69642 10.4401C6.74233 10.4419 6.78737 10.4531 6.82873 10.4732C6.87008 10.4932 6.90685 10.5215 6.93674 10.5564L6.9493 10.5711L6.96295 10.5847L8.33795 11.9597ZM5.64787 4.18466C6.93606 3.32392 8.45055 2.8645 9.99984 2.8645C11.0285 2.8645 12.0471 3.06712 12.9975 3.46078C13.9479 3.85444 14.8115 4.43144 15.5388 5.15883C16.2662 5.88622 16.8432 6.74976 17.2369 7.70015C17.6306 8.65053 17.8332 9.66915 17.8332 10.6978C17.8332 12.2471 17.3738 13.7616 16.513 15.0498C15.6523 16.338 14.4289 17.342 12.9975 17.9349C11.5662 18.5278 9.99115 18.6829 8.47163 18.3807C6.95212 18.0784 5.55635 17.3323 4.46084 16.2368C3.36533 15.1413 2.61927 13.7456 2.31702 12.226C2.01477 10.7065 2.1699 9.1315 2.76278 7.70015C3.35567 6.26879 4.35969 5.04539 5.64787 4.18466ZM6.01825 16.6567C7.19681 17.4442 8.58241 17.8645 9.99984 17.8645C11.9006 17.8645 13.7234 17.1094 15.0674 15.7654C16.4115 14.4214 17.1665 12.5986 17.1665 10.6978C17.1665 9.2804 16.7462 7.8948 15.9587 6.71625C15.1712 5.5377 14.0519 4.61913 12.7424 4.0767C11.4329 3.53427 9.99189 3.39235 8.60169 3.66887C7.2115 3.9454 5.93452 4.62796 4.93224 5.63024C3.92997 6.63251 3.24741 7.90949 2.97088 9.29969C2.69435 10.6899 2.83628 12.1309 3.3787 13.4404C3.92113 14.7499 4.8397 15.8692 6.01825 16.6567Z" stroke="#39744A"/>
</svg>
