<svg width="22" height="22" viewBox="0 0 22 22" fill="none" xmlns="http://www.w3.org/2000/svg">
<path d="M5.5 20.1666C4.73611 20.1666 4.08681 19.8993 3.55208 19.3646C3.01736 18.8298 2.75 18.1805 2.75 17.4166V16.5C2.75 15.9958 2.92967 15.5644 3.289 15.2056C3.64833 14.8469 4.07978 14.6673 4.58333 14.6666H5.5V3.66665C5.5 3.16248 5.67967 2.73104 6.039 2.37231C6.39833 2.01359 6.82978 1.83392 7.33333 1.83331H17.4167C17.9208 1.83331 18.3526 2.01298 18.7119 2.37231C19.0713 2.73165 19.2506 3.16309 19.25 3.66665V17.4166C19.25 18.1805 18.9826 18.8298 18.4479 19.3646C17.9132 19.8993 17.2639 20.1666 16.5 20.1666H5.5ZM16.5 18.3333C16.7597 18.3333 16.9776 18.2453 17.1536 18.0693C17.3296 17.8933 17.4173 17.6758 17.4167 17.4166V3.66665H7.33333V14.6666H13.75C14.2542 14.6666 14.6859 14.8463 15.0453 15.2056C15.4046 15.565 15.5839 15.9964 15.5833 16.5V17.4166C15.5833 17.6764 15.6713 17.8942 15.8473 18.0702C16.0233 18.2462 16.2409 18.3339 16.5 18.3333ZM9.16667 8.24998C8.90694 8.24998 8.68939 8.16198 8.514 7.98598C8.33861 7.80998 8.25061 7.59242 8.25 7.33331C8.24939 7.0742 8.33739 6.85665 8.514 6.68065C8.69061 6.50465 8.90817 6.41665 9.16667 6.41665H15.5833C15.8431 6.41665 16.0609 6.50465 16.2369 6.68065C16.4129 6.85665 16.5006 7.0742 16.5 7.33331C16.4994 7.59242 16.4114 7.81029 16.236 7.9869C16.0606 8.16351 15.8431 8.2512 15.5833 8.24998H9.16667ZM9.16667 11C8.90694 11 8.68939 10.912 8.514 10.736C8.33861 10.56 8.25061 10.3424 8.25 10.0833C8.24939 9.8242 8.33739 9.60665 8.514 9.43065C8.69061 9.25465 8.90817 9.16665 9.16667 9.16665H15.5833C15.8431 9.16665 16.0609 9.25465 16.2369 9.43065C16.4129 9.60665 16.5006 9.8242 16.5 10.0833C16.4994 10.3424 16.4114 10.5603 16.236 10.7369C16.0606 10.9135 15.8431 11.0012 15.5833 11H9.16667ZM5.5 18.3333H13.75V16.5H4.58333V17.4166C4.58333 17.6764 4.67133 17.8942 4.84733 18.0702C5.02333 18.2462 5.24089 18.3339 5.5 18.3333ZM5.5 18.3333H4.58333H13.75H5.5Z" fill="#5A5A5A"/>
</svg>
