<svg width="21" height="21" viewBox="0 0 21 21" fill="none" xmlns="http://www.w3.org/2000/svg">
<path d="M19.4031 9.20938C19.5635 9.38438 19.6438 9.59219 19.6438 9.83281C19.6438 10.0734 19.5635 10.2813 19.4031 10.4563L16.2969 13.5406C16.1365 13.7156 15.9323 13.8031 15.6844 13.8031C15.4365 13.8031 15.2323 13.7156 15.0719 13.5406L13.825 12.3156C13.65 12.1406 13.5625 11.9328 13.5625 11.6922C13.5625 11.4516 13.65 11.2438 13.825 11.0688C14 10.9083 14.2078 10.8281 14.4484 10.8281C14.6891 10.8281 14.8969 10.9083 15.0719 11.0688L15.6844 11.6813L18.1563 9.20938C18.3313 9.04896 18.5391 8.96875 18.7797 8.96875C19.0203 8.96875 19.2281 9.04896 19.4031 9.20938ZM9.03438 17.8719L6.84688 15.8813C5.79688 14.9333 4.89635 14.0875 4.14531 13.3438C3.39427 12.6 2.77448 11.9 2.28594 11.2438C1.7974 10.5875 1.4401 9.95313 1.21406 9.34063C0.988021 8.72813 0.875 8.08646 0.875 7.41563C0.875 6.04479 1.33438 4.90365 2.25313 3.99219C3.17188 3.08073 4.31667 2.625 5.6875 2.625C6.44583 2.625 7.16771 2.78177 7.85313 3.09531C8.53854 3.40885 9.12917 3.85729 9.625 4.44063C10.1208 3.85729 10.7115 3.40885 11.3969 3.09531C12.0823 2.78177 12.8042 2.625 13.5625 2.625C14.8021 2.625 15.8411 3.00052 16.6797 3.75156C17.5182 4.5026 18.0396 5.38125 18.2438 6.3875C17.9521 6.27083 17.6458 6.19792 17.325 6.16875C17.0042 6.13958 16.676 6.125 16.3406 6.125C15.101 6.125 13.9635 6.62448 12.9281 7.62344C11.8927 8.6224 11.375 9.87292 11.375 11.375C11.375 12.075 11.5281 12.7859 11.8344 13.5078C12.1406 14.2297 12.5708 14.8167 13.125 15.2688C12.8479 15.5167 12.487 15.8339 12.0422 16.2203C11.5974 16.6068 11.2146 16.9458 10.8938 17.2375L10.1938 17.8719C10.0333 18.0177 9.84011 18.0906 9.61406 18.0906C9.38802 18.0906 9.19479 18.0177 9.03438 17.8719Z" fill="#686868"/>
</svg>
