<svg width="21" height="21" viewBox="0 0 21 21" fill="none" xmlns="http://www.w3.org/2000/svg">
<path d="M2.1875 19.25H12.25C13.4581 19.25 14.4375 18.2706 14.4375 17.0625V17.0625C14.4375 15.8544 13.4581 14.875 12.25 14.875H2.1875" stroke="#717171" stroke-width="1.5"/>
<path d="M2.1875 12.25H3.5C4.70812 12.25 5.6875 11.2706 5.6875 10.0625V10.0625C5.6875 8.85438 4.70812 7.875 3.5 7.875H2.1875" stroke="#717171" stroke-width="1.5"/>
<path d="M17.0625 1.75H7.4375C6.471 1.75 5.6875 2.5335 5.6875 3.5V13.125C5.6875 14.0915 6.471 14.875 7.4375 14.875H17.0625C18.029 14.875 18.8125 14.0915 18.8125 13.125V3.5C18.8125 2.5335 18.029 1.75 17.0625 1.75Z" stroke="#717171" stroke-width="1.5"/>
<path d="M10.4394 7.43921L12.1755 6.17842C12.2193 6.14657 12.2787 6.14661 12.3225 6.17852L14.0528 7.4387C14.1354 7.49887 14.2514 7.43986 14.2514 7.33766V2C14.2514 1.86193 14.1395 1.75 14.0014 1.75H10.491C10.3529 1.75 10.241 1.86193 10.241 2V7.33807C10.241 7.44019 10.3568 7.49922 10.4394 7.43921Z" stroke="#717171" stroke-width="1.5"/>
</svg>
