<svg width="21" height="21" viewBox="0 0 21 21" fill="none" xmlns="http://www.w3.org/2000/svg">
<path d="M15.8637 10.5L16.9662 9.3975C17.3512 9.0125 17.8412 8.8025 18.375 8.75V7.875L13.125 2.625H4.375C3.40375 2.625 2.625 3.40375 2.625 4.375V16.625C2.625 17.0891 2.80937 17.5342 3.13756 17.8624C3.46575 18.1906 3.91087 18.375 4.375 18.375H9.625V16.7387L9.73875 16.625H4.375V4.375H10.5V10.5H15.8637ZM12.25 3.9375L17.0625 8.75H12.25V3.9375ZM16.7387 12.1012L18.5238 13.8862L13.16 19.25H11.375V17.465L16.7387 12.1012ZM19.9938 12.4162L19.1363 13.2738L17.3512 11.4888L18.2087 10.6312C18.375 10.4562 18.6638 10.4562 18.8388 10.6312L19.9938 11.7863C20.1688 11.9613 20.1688 12.25 19.9938 12.4162Z" fill="#717171"/>
</svg>
