<svg width="20" height="20" viewBox="0 0 20 20" fill="none" xmlns="http://www.w3.org/2000/svg">
<path d="M15.0703 15.0704C13.8986 16.2432 12.3565 16.9735 10.7068 17.137C9.05692 17.3005 7.40138 16.8868 6.02226 15.9666C4.64314 15.0463 3.62576 13.6763 3.14346 12.09C2.66115 10.5038 2.74376 8.79932 3.37721 7.26713C4.01067 5.73493 5.15577 4.46976 6.61742 3.68718C8.07908 2.90459 9.76686 2.653 11.3932 2.97527C13.0196 3.29754 14.4839 4.17373 15.5367 5.45457C16.5893 6.73523 17.1654 8.34122 17.1669 9.99896M15.0703 15.0704C15.7376 14.4056 16.2665 13.6152 16.6264 12.7447C16.9863 11.8742 17.17 10.9409 17.1669 9.99896M15.0703 15.0704C15.0701 15.0706 15.0699 15.0708 15.0697 15.0709L14.7169 14.7167L15.0703 15.0704ZM17.1669 9.99896C17.1669 9.99874 17.1669 9.99852 17.1669 9.99831L16.6669 10L17.1669 9.99961C17.1669 9.99939 17.1669 9.99918 17.1669 9.99896ZM12.7369 7.26044L12.7368 7.26045L12.7398 7.26334C12.771 7.29433 12.7958 7.33119 12.8127 7.37181C12.8296 7.41243 12.8384 7.456 12.8384 7.5C12.8384 7.54401 12.8296 7.58758 12.8127 7.6282C12.7958 7.66882 12.771 7.70568 12.7398 7.73667L12.7391 7.73735L10.8224 9.64568L10.4665 10L10.8224 10.3543L12.7391 12.2627L12.7398 12.2633C12.771 12.2943 12.7958 12.3312 12.8127 12.3718L13.2743 12.1795L12.8127 12.3718C12.8296 12.4124 12.8384 12.456 12.8384 12.5C12.8384 12.544 12.8296 12.5876 12.8127 12.6282L13.2743 12.8205L12.8127 12.6282C12.7958 12.6688 12.771 12.7057 12.7398 12.7367L12.7369 12.7396C12.7059 12.7708 12.669 12.7956 12.6284 12.8125L12.8207 13.2741L12.6284 12.8125C12.5878 12.8295 12.5442 12.8382 12.5002 12.8382C12.4562 12.8382 12.4126 12.8295 12.372 12.8125L12.1797 13.2741L12.372 12.8125C12.3314 12.7956 12.2945 12.7708 12.2635 12.7396L12.2628 12.7389L10.3545 10.8222L10.0002 10.4664L9.64587 10.8222L7.73753 12.7389L7.73685 12.7396C7.70587 12.7708 7.669 12.7956 7.62838 12.8125C7.58776 12.8295 7.54419 12.8382 7.50019 12.8382C7.45618 12.8382 7.41262 12.8295 7.372 12.8125C7.33137 12.7956 7.29451 12.7708 7.26352 12.7396L7.26062 12.7367C7.22938 12.7057 7.20458 12.6688 7.18766 12.6282C7.17074 12.5876 7.16202 12.544 7.16202 12.5C7.16202 12.456 7.17074 12.4124 7.18766 12.3718L6.72611 12.1795L7.18766 12.3718C7.20458 12.3312 7.22938 12.2943 7.26062 12.2633L7.2613 12.2627L9.17797 10.3543L9.53384 10L9.17797 9.64568L7.26207 7.73812C7.26196 7.73801 7.26185 7.7379 7.26174 7.73778C7.1988 7.67466 7.16344 7.58916 7.16344 7.5C7.16344 7.41069 7.19892 7.32504 7.26207 7.26189C7.32523 7.19874 7.41088 7.16326 7.50019 7.16326C7.58934 7.16326 7.67485 7.19861 7.73797 7.26156C7.73808 7.26167 7.73819 7.26178 7.7383 7.26189L9.64587 9.17779L10.0002 9.53366L10.3545 9.17779L12.2628 7.26112L12.2635 7.26044C12.2945 7.2292 12.3314 7.2044 12.372 7.18748L12.1797 6.72593L12.372 7.18747C12.4126 7.17055 12.4562 7.16184 12.5002 7.16184C12.5442 7.16184 12.5878 7.17055 12.6284 7.18747C12.669 7.2044 12.7059 7.2292 12.7369 7.26044ZM15.5322 4.45569L15.5382 4.46195L15.5445 4.46798C16.2927 5.19058 16.8894 6.05495 17.3 7.01065C17.7105 7.96635 17.9266 8.99424 17.9356 10.0343C17.9447 11.0744 17.7465 12.1059 17.3526 13.0686C16.9587 14.0313 16.3771 14.9059 15.6416 15.6414C14.9061 16.3769 14.0315 16.9586 13.0688 17.3524C12.1061 17.7463 11.0746 17.9445 10.0345 17.9354C8.99442 17.9264 7.96653 17.7103 7.01083 17.2998C6.05513 16.8892 5.19077 16.2925 4.46817 15.5443L4.46213 15.5381L4.45588 15.532C3.70771 14.8094 3.11095 13.9451 2.70042 12.9894C2.28988 12.0337 2.07379 11.0058 2.06475 9.96567C2.05571 8.92557 2.25391 7.89408 2.64777 6.93139C3.04164 5.9687 3.62329 5.09409 4.35878 4.3586C5.09428 3.62311 5.96888 3.04146 6.93157 2.64759C7.89426 2.25372 8.92575 2.05553 9.96585 2.06457C11.006 2.0736 12.0338 2.2897 12.9895 2.70023C13.9452 3.11077 14.8096 3.70753 15.5322 4.45569Z" stroke="#F44336"/>
</svg>
