<svg width="20" height="20" viewBox="0 0 20 20" fill="none" xmlns="http://www.w3.org/2000/svg">
<path d="M9.99984 9.16669C9.77883 9.16669 9.56687 9.25449 9.41059 9.41077C9.25431 9.56705 9.16651 9.77901 9.16651 10V13.3334C9.16651 13.5544 9.25431 13.7663 9.41059 13.9226C9.56687 14.0789 9.77883 14.1667 9.99984 14.1667C10.2209 14.1667 10.4328 14.0789 10.5891 13.9226C10.7454 13.7663 10.8332 13.5544 10.8332 13.3334V10C10.8332 9.77901 10.7454 9.56705 10.5891 9.41077C10.4328 9.25449 10.2209 9.16669 9.99984 9.16669ZM10.3165 5.90002C10.1136 5.81667 9.88606 5.81667 9.68317 5.90002C9.58088 5.93968 9.48743 5.99915 9.40817 6.07502C9.33457 6.15602 9.27538 6.24903 9.23317 6.35002C9.18652 6.44892 9.16369 6.55737 9.16651 6.66669C9.16587 6.77636 9.18689 6.88508 9.22837 6.98661C9.26984 7.08814 9.33094 7.18049 9.40817 7.25835C9.48918 7.33196 9.58219 7.39115 9.68317 7.43335C9.80942 7.48522 9.94648 7.50528 10.0823 7.49178C10.2181 7.47828 10.3485 7.43162 10.4621 7.35591C10.5757 7.2802 10.6689 7.17776 10.7336 7.05758C10.7983 6.9374 10.8325 6.80317 10.8332 6.66669C10.8301 6.44605 10.7438 6.23472 10.5915 6.07502C10.5123 5.99915 10.4188 5.93968 10.3165 5.90002ZM9.99984 1.66669C8.35166 1.66669 6.7405 2.15543 5.37009 3.07111C3.99968 3.98679 2.93158 5.28827 2.30084 6.81099C1.67011 8.33371 1.50509 10.0093 1.82663 11.6258C2.14817 13.2423 2.94185 14.7271 4.10728 15.8926C5.27272 17.058 6.75758 17.8517 8.37409 18.1732C9.9906 18.4948 11.6662 18.3297 13.1889 17.699C14.7116 17.0683 16.0131 16.0002 16.9288 14.6298C17.8444 13.2594 18.3332 11.6482 18.3332 10C18.3332 8.90567 18.1176 7.82204 17.6988 6.81099C17.28 5.79994 16.6662 4.88129 15.8924 4.10746C15.1186 3.33364 14.1999 2.71981 13.1889 2.30102C12.1778 1.88224 11.0942 1.66669 9.99984 1.66669ZM9.99984 16.6667C8.6813 16.6667 7.39237 16.2757 6.29604 15.5432C5.19971 14.8106 4.34523 13.7694 3.84064 12.5512C3.33606 11.3331 3.20404 9.99263 3.46127 8.69942C3.71851 7.40621 4.35345 6.21833 5.2858 5.28598C6.21815 4.35363 7.40603 3.71869 8.69924 3.46145C9.99245 3.20422 11.3329 3.33624 12.5511 3.84082C13.7692 4.34541 14.8104 5.19989 15.543 6.29622C16.2755 7.39255 16.6665 8.68148 16.6665 10C16.6665 11.7681 15.9641 13.4638 14.7139 14.7141C13.4636 15.9643 11.768 16.6667 9.99984 16.6667Z" fill="#0052EA"/>
</svg>
