<svg width="269" height="138" viewBox="0 0 269 138" fill="none" xmlns="http://www.w3.org/2000/svg">
<mask id="path-1-outside-1_1595_3370" maskUnits="userSpaceOnUse" x="-0.432675" y="1.70214" width="110.452" height="131.27" fill="black">
<rect fill="white" x="-0.432675" y="1.70214" width="110.452" height="131.27"/>
<path d="M86.513 116.485C86.6449 119.001 85.4992 120.323 83.0759 120.45L74.268 120.911C71.8446 121.038 70.567 119.844 70.4351 117.327L69.4606 98.7327L19.6889 101.341C17.6384 101.449 15.9804 101.021 14.715 100.06C13.538 98.9998 12.8981 97.4912 12.7955 95.5339L12.4365 88.6833C12.3339 86.726 12.8862 84.7811 14.0934 82.8486L56.8743 16.3985C58.6066 13.7843 61.1038 12.3917 64.3659 12.2207L74.2923 11.7005C78.7662 11.466 81.1179 13.5391 81.3475 17.9198L84.7326 82.5112L96.057 81.9177C98.3872 81.7955 99.6133 82.8996 99.7354 85.2297L100.175 93.6182C100.297 95.9483 99.1931 97.1744 96.863 97.2966L85.5386 97.89L86.513 116.485ZM68.6546 83.3538L65.929 31.3451L31.1861 85.3174L68.6546 83.3538Z"/>
</mask>
<path d="M86.513 116.485C86.6449 119.001 85.4992 120.323 83.0759 120.45L74.268 120.911C71.8446 121.038 70.567 119.844 70.4351 117.327L69.4606 98.7327L19.6889 101.341C17.6384 101.449 15.9804 101.021 14.715 100.06C13.538 98.9998 12.8981 97.4912 12.7955 95.5339L12.4365 88.6833C12.3339 86.726 12.8862 84.7811 14.0934 82.8486L56.8743 16.3985C58.6066 13.7843 61.1038 12.3917 64.3659 12.2207L74.2923 11.7005C78.7662 11.466 81.1179 13.5391 81.3475 17.9198L84.7326 82.5112L96.057 81.9177C98.3872 81.7955 99.6133 82.8996 99.7354 85.2297L100.175 93.6182C100.297 95.9483 99.1931 97.1744 96.863 97.2966L85.5386 97.89L86.513 116.485ZM68.6546 83.3538L65.929 31.3451L31.1861 85.3174L68.6546 83.3538Z" fill="#FBE1BA"/>
<path d="M69.4606 98.7327L77.4497 98.314L77.031 90.3249L69.0419 90.7436L69.4606 98.7327ZM14.715 100.06L9.36199 106.005L9.60928 106.227L9.8742 106.429L14.715 100.06ZM14.0934 82.8486L7.3669 78.518L7.33736 78.5639L7.30845 78.6102L14.0934 82.8486ZM56.8743 16.3985L50.2055 11.9797L50.1763 12.0236L50.1478 12.068L56.8743 16.3985ZM84.7326 82.5112L76.7435 82.9298L77.1622 90.9189L85.1513 90.5002L84.7326 82.5112ZM85.5386 97.89L85.1199 89.901L77.1308 90.3197L77.5495 98.3087L85.5386 97.89ZM68.6546 83.3538L69.0733 91.3428L77.0624 90.9241L76.6437 82.9351L68.6546 83.3538ZM65.929 31.3451L73.918 30.9264L72.6206 6.16984L59.2022 27.015L65.929 31.3451ZM31.1861 85.3174L24.4593 80.9873L16.0028 94.1241L31.6048 93.3064L31.1861 85.3174ZM78.524 116.903C78.5239 116.9 78.5201 116.828 78.5311 116.698C78.5421 116.568 78.5693 116.364 78.6377 116.105C78.7806 115.564 79.0925 114.833 79.7076 114.123C81.039 112.587 82.5591 112.466 82.6572 112.461L83.4946 128.439C86.016 128.307 89.3206 127.461 91.7977 124.603C94.2237 121.804 94.6287 118.482 94.5021 116.066L78.524 116.903ZM82.6572 112.461L73.8493 112.922L74.6866 128.9L83.4946 128.439L82.6572 112.461ZM73.8493 112.922C73.9474 112.917 75.4718 112.879 76.9565 114.268C77.6424 114.909 78.029 115.603 78.2277 116.126C78.3227 116.377 78.3711 116.577 78.3957 116.705C78.4202 116.833 78.424 116.906 78.4241 116.908L62.4461 117.746C62.5727 120.162 63.3227 123.424 66.028 125.954C68.7903 128.537 72.1652 129.033 74.6866 128.9L73.8493 112.922ZM78.4241 116.908L77.4497 98.314L61.4716 99.1513L62.4461 117.746L78.4241 116.908ZM69.0419 90.7436L19.2702 93.352L20.1076 109.33L69.8793 106.722L69.0419 90.7436ZM19.2702 93.352C18.9008 93.3714 18.8058 93.3291 18.9035 93.3543C18.9551 93.3676 19.0491 93.397 19.1708 93.4548C19.2938 93.5132 19.4258 93.5916 19.5559 93.6905L9.8742 106.429C13.0407 108.835 16.7298 109.507 20.1076 109.33L19.2702 93.352ZM20.0681 94.1145C20.3786 94.3941 20.597 94.726 20.7173 95.0096C20.825 95.2636 20.7964 95.3405 20.7846 95.1152L4.80651 95.9526C4.99219 99.4956 6.25136 103.204 9.36199 106.005L20.0681 94.1145ZM20.7846 95.1152L20.4256 88.2646L4.44749 89.102L4.80651 95.9526L20.7846 95.1152ZM20.4256 88.2646C20.4222 88.201 20.3952 87.8605 20.8784 87.087L7.30845 78.6102C5.37728 81.7017 4.24566 85.251 4.44749 89.102L20.4256 88.2646ZM20.82 87.1792L63.6009 20.7291L50.1478 12.068L7.3669 78.518L20.82 87.1792ZM63.5432 20.8174C63.7731 20.4704 63.9153 20.3957 63.9428 20.3804C63.9812 20.359 64.1996 20.2404 64.7846 20.2098L63.9473 4.2317C58.2775 4.52883 53.4049 7.15114 50.2055 11.9797L63.5432 20.8174ZM64.7846 20.2098L74.711 19.6895L73.8736 3.71148L63.9473 4.2317L64.7846 20.2098ZM74.711 19.6895C75.2019 19.6638 75.314 19.721 75.169 19.682C74.9867 19.6329 74.568 19.4744 74.1213 19.0807C73.6709 18.6836 73.441 18.2666 73.3495 18.0379C73.2739 17.849 73.3355 17.8999 73.3585 18.3385L89.3365 17.5011C89.1549 14.0362 88.0464 10.0268 84.7017 7.07831C81.3896 4.15866 77.3003 3.53189 73.8736 3.71148L74.711 19.6895ZM73.3585 18.3385L76.7435 82.9298L92.7216 82.0925L89.3365 17.5011L73.3585 18.3385ZM85.1513 90.5002L96.4757 89.9067L95.6384 73.9286L84.3139 74.5221L85.1513 90.5002ZM96.4757 89.9067C96.4093 89.9102 94.891 89.9677 93.3712 88.5992C91.8514 87.2308 91.7499 85.7148 91.7464 85.6484L107.724 84.811C107.599 82.4145 106.823 79.1814 104.077 76.7089C101.331 74.2365 98.0349 73.803 95.6384 73.9286L96.4757 89.9067ZM91.7464 85.6484L92.186 94.0369L108.164 93.1995L107.724 84.811L91.7464 85.6484ZM92.186 94.0369C92.1825 93.9705 92.125 92.4521 93.4935 90.9323C94.8619 89.4125 96.3779 89.311 96.4443 89.3075L97.2817 105.286C99.6782 105.16 102.911 104.384 105.384 101.638C107.856 98.8925 108.29 95.596 108.164 93.1995L92.186 94.0369ZM96.4443 89.3075L85.1199 89.901L85.9572 105.879L97.2817 105.286L96.4443 89.3075ZM77.5495 98.3087L78.524 116.903L94.5021 116.066L93.5276 97.4714L77.5495 98.3087ZM76.6437 82.9351L73.918 30.9264L57.9399 31.7638L60.6656 83.7725L76.6437 82.9351ZM59.2022 27.015L24.4593 80.9873L37.9129 89.6476L72.6558 35.6753L59.2022 27.015ZM31.6048 93.3064L69.0733 91.3428L68.236 75.3647L30.7674 77.3284L31.6048 93.3064Z" fill="#FF792E" mask="url(#path-1-outside-1_1595_3370)"/>
<mask id="path-3-outside-2_1595_3370" maskUnits="userSpaceOnUse" x="162.274" y="-0.0929556" width="115.582" height="134.672" fill="black">
<rect fill="white" x="162.274" y="-0.0929556" width="115.582" height="134.672"/>
<path d="M244.302 120.297C244.082 122.808 242.763 123.957 240.346 123.746L231.56 122.977C229.142 122.765 228.043 121.404 228.263 118.894L229.886 100.345L180.235 96.001C178.19 95.8221 176.607 95.1684 175.488 94.0398C174.47 92.8265 174.046 91.2435 174.217 89.291L174.815 82.4571C174.986 80.5046 175.804 78.6555 177.268 76.9098L228.881 17.0604C230.96 14.7126 233.627 13.6811 236.881 13.9658L246.783 14.8322C251.246 15.2226 253.286 17.6028 252.904 21.9728L247.267 86.4067L258.564 87.395C260.888 87.5984 261.949 88.8623 261.745 91.1868L261.013 99.5548C260.81 101.879 259.546 102.94 257.221 102.736L245.924 101.748L244.302 120.297ZM231.228 85.0035L235.767 33.1217L193.851 81.7334L231.228 85.0035Z"/>
</mask>
<path d="M244.302 120.297C244.082 122.808 242.763 123.957 240.346 123.746L231.56 122.977C229.142 122.765 228.043 121.404 228.263 118.894L229.886 100.345L180.235 96.001C178.19 95.8221 176.607 95.1684 175.488 94.0398C174.47 92.8265 174.046 91.2435 174.217 89.291L174.815 82.4571C174.986 80.5046 175.804 78.6555 177.268 76.9098L228.881 17.0604C230.96 14.7126 233.627 13.6811 236.881 13.9658L246.783 14.8322C251.246 15.2226 253.286 17.6028 252.904 21.9728L247.267 86.4067L258.564 87.395C260.888 87.5984 261.949 88.8623 261.745 91.1868L261.013 99.5548C260.81 101.879 259.546 102.94 257.221 102.736L245.924 101.748L244.302 120.297ZM231.228 85.0035L235.767 33.1217L193.851 81.7334L231.228 85.0035Z" fill="#FBE1BA"/>
<path d="M229.886 100.345L237.855 101.042L238.553 93.0726L230.583 92.3753L229.886 100.345ZM175.488 94.0398L169.36 99.1821L169.574 99.4371L169.808 99.6733L175.488 94.0398ZM177.268 76.9098L171.21 71.6852L171.174 71.7265L171.139 71.7683L177.268 76.9098ZM228.881 17.0604L222.892 11.7564L222.857 11.7959L222.822 11.8358L228.881 17.0604ZM247.267 86.4067L239.297 85.7095L238.6 93.679L246.569 94.3763L247.267 86.4067ZM245.924 101.748L246.622 93.7785L238.652 93.0813L237.955 101.051L245.924 101.748ZM231.228 85.0035L230.531 92.973L238.5 93.6703L239.197 85.7007L231.228 85.0035ZM235.767 33.1217L243.737 33.8189L245.897 9.12266L229.708 27.8975L235.767 33.1217ZM193.851 81.7334L187.792 76.5092L177.59 88.3413L193.153 89.703L193.851 81.7334ZM236.332 119.6C236.332 119.597 236.339 119.525 236.368 119.398C236.397 119.27 236.452 119.072 236.556 118.825C236.772 118.31 237.183 117.629 237.891 117.012C239.423 115.676 240.945 115.767 241.043 115.776L239.649 131.715C242.164 131.935 245.554 131.558 248.405 129.072C251.197 126.639 252.06 123.404 252.271 120.994L236.332 119.6ZM241.043 115.776L232.257 115.007L230.862 130.946L239.649 131.715L241.043 115.776ZM232.257 115.007C232.355 115.016 233.87 115.19 235.147 116.772C235.737 117.502 236.023 118.244 236.147 118.789C236.206 119.051 236.226 119.255 236.233 119.386C236.239 119.516 236.233 119.588 236.232 119.591L220.293 118.197C220.082 120.607 220.371 123.942 222.698 126.823C225.074 129.766 228.347 130.726 230.862 130.946L232.257 115.007ZM236.232 119.591L237.855 101.042L221.916 99.6476L220.293 118.197L236.232 119.591ZM230.583 92.3753L180.933 88.0315L179.538 103.971L229.188 108.314L230.583 92.3753ZM180.933 88.0315C180.564 87.9992 180.476 87.9442 180.569 87.9827C180.618 88.003 180.707 88.0452 180.82 88.1194C180.934 88.1944 181.053 88.2904 181.168 88.4064L169.808 99.6733C172.609 102.497 176.169 103.676 179.538 103.971L180.933 88.0315ZM181.617 88.8975C181.885 89.2176 182.055 89.5767 182.135 89.8743C182.206 90.1408 182.167 90.2129 182.187 89.9882L166.248 88.5938C165.939 92.1281 166.669 95.9757 169.36 99.1821L181.617 88.8975ZM182.187 89.9882L182.785 83.1544L166.846 81.7599L166.248 88.5938L182.187 89.9882ZM182.785 83.1544C182.79 83.0909 182.811 82.75 183.397 82.0512L171.139 71.7683C168.796 74.561 167.182 77.9182 166.846 81.7599L182.785 83.1544ZM183.326 82.1344L234.939 22.2849L222.822 11.8358L171.21 71.6852L183.326 82.1344ZM234.87 22.3643C235.146 22.0527 235.297 21.9986 235.326 21.9872C235.367 21.9714 235.6 21.8843 236.184 21.9354L237.578 5.99629C231.922 5.50146 226.732 7.42011 222.892 11.7564L234.87 22.3643ZM236.184 21.9354L246.086 22.8017L247.48 6.86262L237.578 5.99629L236.184 21.9354ZM246.086 22.8017C246.575 22.8446 246.678 22.9168 246.54 22.858C246.367 22.784 245.974 22.5688 245.587 22.1167C245.196 21.6608 245.026 21.2159 244.967 20.9767C244.919 20.779 244.973 20.8381 244.934 21.2756L260.873 22.6701C261.176 19.2136 260.636 15.0889 257.734 11.7037C254.861 8.35148 250.899 7.16168 247.48 6.86262L246.086 22.8017ZM244.934 21.2756L239.297 85.7095L255.236 87.1039L260.873 22.6701L244.934 21.2756ZM246.569 94.3763L257.866 95.3646L259.261 79.4255L247.964 78.4371L246.569 94.3763ZM257.866 95.3646C257.8 95.3588 256.288 95.2044 254.974 93.6378C253.659 92.0712 253.77 90.5558 253.776 90.4895L269.715 91.884C269.924 89.4933 269.606 86.1837 267.231 83.3532C264.856 80.5227 261.651 79.6346 259.261 79.4255L257.866 95.3646ZM253.776 90.4895L253.043 98.8576L268.983 100.252L269.715 91.884L253.776 90.4895ZM253.043 98.8576C253.049 98.7913 253.204 97.2798 254.77 95.9652C256.337 94.6506 257.852 94.7611 257.919 94.7669L256.524 110.706C258.915 110.915 262.224 110.597 265.055 108.222C267.885 105.847 268.773 102.643 268.983 100.252L253.043 98.8576ZM257.919 94.7669L246.622 93.7785L245.227 109.718L256.524 110.706L257.919 94.7669ZM237.955 101.051L236.332 119.6L252.271 120.994L253.894 102.445L237.955 101.051ZM239.197 85.7007L243.737 33.8189L227.797 32.4244L223.258 84.3062L239.197 85.7007ZM229.708 27.8975L187.792 76.5092L199.909 86.9576L241.826 38.3459L229.708 27.8975ZM193.153 89.703L230.531 92.973L231.925 77.0339L194.548 73.7638L193.153 89.703Z" fill="#FF792E" mask="url(#path-3-outside-2_1595_3370)"/>
<path d="M114.4 25.3381C129.231 22.9016 139.119 26.3534 142.208 28.3838C151.478 26.3533 172.179 22.9016 180.83 25.3381C191.645 28.3838 199.369 35.9978 202.459 48.1804C204.931 57.9264 198.339 68.4846 194.734 72.5455V78.6367L187.01 93.8649L170.016 110.616C165.073 110.616 158.687 113.662 156.112 115.184C149.933 121.276 144.268 117.722 142.208 115.184C136.029 120.057 134.484 119.245 134.484 118.23C123.67 108.585 101.115 88.0782 97.4069 83.2052C93.6991 78.3322 95.862 74.0683 98.9517 72.5455C96.8919 68.4846 92.4632 59.4492 91.2273 55.7945C89.6824 51.226 95.8619 28.3838 114.4 25.3381Z" fill="#FBE1BA" stroke="black"/>
<path d="M204.779 59.85C204.909 59.3854 205.063 58.9326 205.173 58.4601C205.197 58.3656 205.204 58.2711 205.228 58.1766C206.353 53.6361 206.349 48.8892 205.215 44.3508C204.082 39.8124 201.854 35.6206 198.727 32.1418C195.844 28.2643 192.087 25.1212 187.761 22.9676C183.435 20.8139 178.663 19.7104 173.83 19.7466H173.626C173.232 19.7466 172.791 19.7742 172.374 19.786H171.897C163.576 20.2451 155.304 21.3696 147.162 23.1486L129.534 20.3333H129.396C121 18.8827 112.359 20.268 104.838 24.2708C100.6 26.8247 96.9609 30.2596 94.167 34.3429L94.0055 34.5595L93.9071 34.6973C90.2108 40.1805 88.2008 46.626 88.1253 53.2383C88.0497 59.8506 89.9118 66.3404 93.4819 71.9067C93.407 72.0405 93.3637 72.1902 93.2928 72.328C92.9516 73.0106 92.6607 73.7173 92.4227 74.4424C92.2967 74.8362 92.2022 75.2535 92.1116 75.663C92.0407 75.9977 91.9699 76.3285 91.9226 76.6632C91.874 77.0802 91.8451 77.4994 91.836 77.9192C91.836 78.2578 91.7966 78.5886 91.8124 78.9233C91.8399 79.3643 91.8911 79.8013 91.962 80.2384C92.0092 80.5495 92.0329 80.8605 92.1037 81.1677C92.2219 81.652 92.3794 82.1284 92.5605 82.593C92.651 82.8411 92.7101 83.097 92.8204 83.3412C93.1432 84.0617 93.537 84.7429 94.0016 85.3808C95.7831 87.9316 98.4117 89.7678 101.42 90.5625C101.308 92.2416 101.587 93.9237 102.236 95.4762C102.885 97.0287 103.886 98.4091 105.16 99.5085C107.417 101.485 110.184 102.787 113.146 103.265C113.756 105.245 114.827 107.053 116.268 108.541C118.234 110.673 120.892 112.04 123.769 112.4C124.454 114.735 125.754 116.845 127.533 118.503C129.727 120.661 132.664 121.889 135.739 121.929C138.001 121.918 140.222 121.33 142.193 120.22C145.122 121.897 148.556 122.464 151.871 121.818C153.611 121.5 155.26 120.803 156.701 119.776C158.141 118.749 159.338 117.418 160.207 115.877C160.289 115.747 160.337 115.633 160.411 115.503C163.758 116.188 167.243 115.585 170.169 113.817C172.741 112.365 174.7 110.029 175.681 107.242C179.201 107.289 182.611 106.021 185.237 103.678C186.676 102.42 187.794 100.837 188.497 99.0594C189.199 97.282 189.467 95.3624 189.277 93.4605C189.277 93.3503 189.25 93.2637 189.242 93.1573C191.297 92.5415 193.145 91.3777 194.589 89.7908C196.455 87.8227 197.657 85.3186 198.024 82.6313C198.392 79.944 197.906 77.2093 196.636 74.8125C200.176 70.7224 202.855 65.9601 204.511 60.8108C204.606 60.5076 204.685 60.1768 204.779 59.85ZM198.038 53.1563C197.842 55.136 197.407 57.0848 196.743 58.9602L196.617 59.3539C195.308 62.8568 193.421 66.1151 191.033 68.9929C178.681 58.212 160.715 42.4778 159.238 41.0682C157.533 39.4357 155.267 38.5172 152.907 38.5009C152.174 38.4946 151.446 38.5995 150.745 38.812C148.249 39.5995 142.114 41.5682 136.759 43.5567C134.711 44.3166 132.373 42.3754 131.66 40.7217C131.187 39.7294 131.109 38.5954 131.431 37.548C132.073 36.3865 133.152 35.5242 134.428 35.154C146.54 30.8961 159.196 28.3773 172.015 27.6728H172.492C172.929 27.6728 173.362 27.6413 173.764 27.6334C176.704 27.585 179.624 28.1384 182.343 29.2596C186.376 31.0977 189.916 33.8636 192.675 37.3315C195.138 40.1189 196.861 43.4809 197.684 47.1083L197.719 47.2894C197.909 48.2587 198.028 49.2403 198.078 50.2268C198.089 50.5457 198.109 50.9473 198.109 51.3017C198.109 51.8727 198.109 52.4397 198.042 53.0027L198.038 53.1563ZM99.7779 79.3761C99.7503 79.2068 99.7503 79.0217 99.7503 78.8445C99.7069 78.4651 99.7069 78.082 99.7503 77.7027C99.7938 77.479 99.8503 77.2582 99.9197 77.0412C99.9984 76.6907 100.117 76.3482 100.258 76.0213C100.388 75.7851 100.538 75.5567 100.703 75.3441C100.938 74.9601 101.222 74.6091 101.55 74.3007L101.573 74.281L108.98 68.0007C109.472 67.6217 110.034 67.3435 110.634 67.1819C111.233 67.0204 111.859 66.9786 112.475 67.0591C113.091 67.1395 113.685 67.3406 114.223 67.6508C114.761 67.961 115.232 68.3743 115.611 68.8669C115.886 69.2701 116.065 69.7313 116.133 70.2148C116.201 70.6983 116.157 71.191 116.004 71.6547L104.389 82.971C103.587 82.9854 102.795 82.7916 102.09 82.4086C101.386 82.0256 100.793 81.4664 100.369 80.7857C100.076 80.3619 99.8748 79.8819 99.7779 79.3761ZM109.685 88.8064L122.43 76.3875L122.371 76.3285C123.088 75.9713 123.899 75.8448 124.69 75.9662C125.702 76.2418 126.616 76.8088 127.313 77.5963C128.006 78.187 128.47 78.9981 128.628 79.8958C128.687 80.8054 128.487 81.7129 128.053 82.5143C128.013 82.6239 127.979 82.7356 127.951 82.849L115.071 95.3978C114.167 95.4372 113.266 95.2818 112.428 94.9421C111.589 94.6024 110.834 94.0864 110.212 93.429C109.701 92.7849 109.38 92.0103 109.287 91.1932C109.194 90.3761 109.332 89.5492 109.685 88.8064ZM120.651 100.954L133.959 88.0032C134.806 88.1725 135.582 88.6056 136.172 89.2395C136.988 89.9542 137.557 90.9097 137.794 91.9682C137.857 92.4235 137.837 92.8863 137.735 93.3345L126.226 104.537C125.458 104.679 124.667 104.624 123.926 104.376C123.186 104.128 122.52 103.695 121.993 103.119C121.378 102.516 120.918 101.773 120.651 100.954ZM133.003 112.813C132.29 112.184 131.728 111.404 131.357 110.53L142.228 99.9495C143.004 100.205 143.713 100.627 144.307 101.182C144.862 101.625 145.281 102.216 145.516 102.887C145.649 103.383 145.649 103.906 145.516 104.403C145.024 105.991 144.204 107.459 143.11 108.71L140.133 112.175H140.157C140.059 112.238 139.948 112.266 139.858 112.337C138.748 113.35 137.319 113.945 135.818 114.018C134.758 114 133.747 113.568 133.003 112.813ZM150.619 114.022C150.036 114.113 149.449 114.14 148.863 114.101L149.154 113.762L149.249 113.648L149.253 113.652C150.446 112.177 151.456 110.563 152.261 108.844L154.001 110.687C153.859 111.058 153.688 111.418 153.489 111.762C153.209 112.328 152.805 112.825 152.309 113.216C151.812 113.607 151.235 113.882 150.619 114.022ZM175.819 99.355L168.814 91.5941C168.213 90.8904 167.382 90.4213 166.469 90.2695C165.556 90.1177 164.618 90.2929 163.821 90.7642C163.024 91.2355 162.419 91.9728 162.113 92.8463C161.806 93.7197 161.817 94.6734 162.144 95.5395C162.326 96.0306 162.605 96.4804 162.963 96.8625L168.617 103.163C168.578 103.564 168.495 103.962 168.369 104.344C168.041 105.459 167.293 106.404 166.282 106.978C165.051 107.785 163.557 108.09 162.109 107.828L157.384 102.812C156.873 102.276 156.221 101.895 155.504 101.714C154.786 101.534 154.031 101.561 153.328 101.792C153.267 101.41 153.184 101.031 153.08 100.658C152.43 98.6008 151.221 96.7645 149.587 95.3545C148.443 94.3104 147.132 93.4653 145.709 92.8542C145.736 92.1216 145.69 91.3882 145.571 90.6649C145.063 87.9836 143.716 85.5332 141.724 83.668C140.276 82.2018 138.486 81.1192 136.515 80.518C136.534 79.9903 136.515 79.4667 136.456 78.943C136.088 76.291 134.82 73.8459 132.865 72.0169C131.084 70.153 128.797 68.8513 126.285 68.2723C125.431 68.1074 124.559 68.0479 123.69 68.0952C123.381 66.6325 122.756 65.2551 121.859 64.0592C120.849 62.7465 119.589 61.646 118.152 60.8208C116.715 59.9955 115.13 59.4618 113.487 59.25C111.843 59.0382 110.175 59.1526 108.576 59.5867C106.977 60.0207 105.479 60.7658 104.168 61.7794L104.03 61.8897L99.1676 65.9847C96.8874 61.8324 95.7964 57.1318 96.0146 52.3997C96.2327 47.6676 97.7515 43.0873 100.404 39.1624L100.487 39.0443C102.643 35.8297 105.47 33.1214 108.775 31.1063C114.803 27.9668 121.706 26.9263 128.392 28.1492L130.219 28.4406C127.519 29.6569 125.363 31.8256 124.163 34.5319C123.583 36.0167 123.306 37.6031 123.351 39.1967C123.396 40.7903 123.76 42.3586 124.423 43.8087C125.602 46.6615 127.802 48.9727 130.593 50.2918C133.384 51.6109 136.566 51.8432 139.519 50.9434C144.717 49.018 150.678 47.0847 152.907 46.3798C153.084 46.374 153.26 46.4081 153.422 46.4797C153.585 46.5513 153.729 46.6584 153.844 46.7933C155.769 48.6045 179.012 68.9496 188.722 77.4113L189.51 78.0846C190.121 79.075 190.382 80.2419 190.252 81.3985C190.121 82.5551 189.606 83.6343 188.789 84.4633C188.228 85.068 187.491 85.4812 186.682 85.6446L179.859 78.7264C179.116 78.0195 178.128 77.6287 177.103 77.6367C176.077 77.6446 175.095 78.0506 174.363 78.7689C173.632 79.4873 173.208 80.4618 173.181 81.4868C173.154 82.5118 173.527 83.507 174.22 84.2625L180.741 90.8696C180.768 90.9878 180.8 91.1059 180.835 91.2201L180.883 91.3422C181.178 92.1826 181.357 93.0597 181.414 93.9488C181.523 94.6239 181.465 95.3155 181.245 95.9629C181.025 96.6103 180.649 97.1937 180.15 97.6618C178.973 98.7643 177.418 99.3707 175.807 99.355H175.819Z" fill="#FF792E"/>
</svg>
