<svg width="139" height="23" viewBox="0 0 139 23" fill="none" xmlns="http://www.w3.org/2000/svg">
<path d="M20.3854 4.29124C20.9152 4.29124 21.4306 4.39863 21.9318 4.61341C22.4401 4.82104 22.8912 5.08593 23.2849 5.40811C23.6858 5.72312 23.983 6.04887 24.1763 6.38536L24.2944 5.35441C24.2944 5.06088 24.3803 4.8103 24.5521 4.60267C24.724 4.38789 24.9566 4.2805 25.2502 4.2805C25.5437 4.2805 25.7943 4.38789 26.0019 4.60267C26.2167 4.8103 26.3241 5.06088 26.3241 5.35441V5.37589L26.3026 15.3203C26.3026 15.6138 26.1952 15.868 25.9804 16.0828C25.7728 16.2904 25.5222 16.3942 25.2287 16.3942C24.9352 16.3942 24.7025 16.2904 24.5307 16.0828C24.3588 15.868 24.2729 15.6138 24.2729 15.3203L24.1548 14.4612C23.7825 15.0984 23.2384 15.5745 22.5224 15.8895C21.8065 16.1973 21.087 16.3512 20.3639 16.3512C19.5549 16.3512 18.796 16.1937 18.0872 15.8787C17.3784 15.5566 16.7556 15.1163 16.2186 14.5578C15.6816 13.9994 15.2592 13.3586 14.9514 12.6355C14.6507 11.9124 14.5003 11.1499 14.5003 10.3481C14.5003 9.5534 14.6471 8.7945 14.9406 8.0714C15.2413 7.34114 15.6566 6.69322 16.1864 6.12763C16.7233 5.55487 17.3462 5.10741 18.055 4.78524C18.7709 4.45591 19.5477 4.29124 20.3854 4.29124ZM24.0904 10.3266C24.0904 9.62499 23.9257 8.98065 23.5964 8.39358C23.2742 7.80651 22.8339 7.33399 22.2754 6.97602C21.717 6.61805 21.0798 6.43906 20.3639 6.43906C19.6623 6.43906 19.0287 6.61805 18.4631 6.97602C17.8975 7.33399 17.45 7.81009 17.1207 8.40432C16.7913 8.99139 16.6267 9.62857 16.6267 10.3159C16.6267 11.0103 16.7949 11.6547 17.1314 12.2489C17.4679 12.836 17.919 13.3085 18.4845 13.6665C19.0573 14.0244 19.6873 14.2034 20.3746 14.2034C21.0619 14.2034 21.6848 14.0244 22.2432 13.6665C22.8088 13.3085 23.2563 12.836 23.5856 12.2489C23.9221 11.6547 24.0904 11.0139 24.0904 10.3266ZM33.2083 4.37715C34.1605 4.37715 35.0339 4.61341 35.8286 5.08593C36.6233 5.55845 37.2605 6.19564 37.7402 6.99749C38.227 7.79219 38.4704 8.67637 38.4704 9.65005C38.4704 9.85051 38.4597 10.0546 38.4382 10.2622C38.4096 10.5271 38.2879 10.7526 38.0731 10.9387C37.8655 11.1177 37.6292 11.2072 37.3643 11.2072L29.8577 11.218C29.9794 11.7334 30.2085 12.2167 30.545 12.6677C30.8815 13.1188 31.2896 13.4839 31.7692 13.7631C32.2561 14.0423 32.7859 14.1819 33.3586 14.1819C33.9743 14.1819 34.5256 14.0316 35.0124 13.7309C35.4993 13.4302 35.8787 13.083 36.1508 12.6892C36.2367 12.5532 36.3656 12.4386 36.5374 12.3456C36.7164 12.2525 36.8846 12.206 37.0421 12.206C37.3357 12.206 37.5862 12.3133 37.7939 12.5281C38.0087 12.7429 38.116 12.9971 38.116 13.2906C38.116 13.5197 38.0516 13.7237 37.9227 13.9027C37.4789 14.5542 36.8667 15.1198 36.0864 15.5995C35.3131 16.072 34.4146 16.3083 33.3908 16.3083C32.5675 16.3083 31.8015 16.1472 31.0927 15.825C30.3911 15.5029 29.7789 15.0626 29.2563 14.5041C28.7337 13.9457 28.3256 13.3049 28.032 12.5818C27.7457 11.8516 27.6025 11.0819 27.6025 10.2729C27.6025 9.49254 27.7457 8.75155 28.032 8.04993C28.3184 7.34114 28.7158 6.71112 29.2241 6.15984C29.7395 5.60857 30.3374 5.17543 31.0175 4.86041C31.6976 4.53824 32.4279 4.37715 33.2083 4.37715ZM36.2582 9.0594C36.1222 8.35778 35.7713 7.75997 35.2057 7.26597C34.6402 6.77197 33.9743 6.52497 33.2083 6.52497C32.4279 6.52497 31.737 6.77913 31.1356 7.28745C30.5414 7.79577 30.1405 8.39 29.9329 9.07014L36.2582 9.0594ZM39.3193 10.3159C39.3193 9.52118 39.4589 8.76586 39.7381 8.04993C40.0173 7.33399 40.4111 6.6968 40.9194 6.13837C41.4277 5.57993 42.0183 5.13963 42.6913 4.81746C43.3715 4.49528 44.1089 4.3342 44.9036 4.3342C45.6911 4.3342 46.4035 4.48812 47.0407 4.79598C47.685 5.09667 48.2363 5.4976 48.6945 5.99876C49.1598 6.49276 49.5071 7.03329 49.7362 7.62036C49.7863 7.74207 49.8114 7.8781 49.8114 8.02845C49.8114 8.32198 49.704 8.57614 49.4892 8.79092C49.2816 8.99855 49.031 9.10236 48.7374 9.10236C48.537 9.10236 48.3401 9.03434 48.1468 8.89831C47.9535 8.76229 47.8175 8.59762 47.7387 8.40432C47.5382 7.88884 47.1874 7.44138 46.6863 7.06193C46.1923 6.67532 45.598 6.48202 44.9036 6.48202C44.2521 6.48202 43.665 6.66458 43.1424 7.02971C42.6269 7.38768 42.2188 7.85662 41.9181 8.43653C41.6174 9.01644 41.4671 9.64289 41.4671 10.3159C41.4671 10.996 41.621 11.6368 41.9289 12.2382C42.2367 12.8324 42.6591 13.3157 43.1961 13.688C43.733 14.0531 44.338 14.2356 45.011 14.2356C45.6696 14.2356 46.2388 14.071 46.7185 13.7416C47.1982 13.4052 47.5597 13.015 47.8031 12.5711C47.8891 12.4136 48.0251 12.2811 48.2112 12.1737C48.3974 12.0592 48.5799 12.0019 48.7589 12.0019C49.0525 12.0019 49.303 12.1093 49.5107 12.3241C49.7254 12.5317 49.8328 12.7823 49.8328 13.0758C49.8328 13.2548 49.7863 13.4302 49.6932 13.602C49.2851 14.3538 48.6766 15.0053 47.8676 15.5566C47.0586 16.1078 46.1064 16.3835 45.011 16.3835C44.1948 16.3835 43.4395 16.2224 42.745 15.9002C42.0577 15.5709 41.4563 15.1234 40.9409 14.5578C40.4325 13.9922 40.0352 13.3479 39.7488 12.6248C39.4624 11.8945 39.3193 11.1249 39.3193 10.3159ZM56.4485 4.34494C57.2719 4.34494 58.0379 4.50244 58.7467 4.81746C59.4626 5.13247 60.0891 5.56919 60.6261 6.12763C61.163 6.68606 61.5818 7.32683 61.8825 8.04993C62.1904 8.77302 62.3443 9.54266 62.3443 10.3588C62.3443 11.1607 62.1904 11.9232 61.8825 12.6463C61.5747 13.3622 61.1487 13.9958 60.6046 14.5471C60.0676 15.0912 59.4412 15.5208 58.7252 15.8358C58.0165 16.1508 57.2576 16.3083 56.4485 16.3083C55.6467 16.3083 54.8878 16.1544 54.1719 15.8465C53.4631 15.5387 52.8366 15.1127 52.2925 14.5686C51.7556 14.0244 51.3332 13.3944 51.0253 12.6785C50.7174 11.9554 50.5635 11.1822 50.5635 10.3588C50.5635 9.54266 50.7174 8.77302 51.0253 8.04993C51.3332 7.32683 51.7556 6.68964 52.2925 6.13837C52.8366 5.57993 53.4631 5.14321 54.1719 4.8282C54.8806 4.50602 55.6395 4.34494 56.4485 4.34494ZM52.7328 10.3803C52.7328 11.0748 52.9011 11.7084 53.2376 12.2811C53.5812 12.8467 54.0358 13.2978 54.6014 13.6343C55.167 13.9707 55.7863 14.139 56.4593 14.139C57.1466 14.139 57.7695 13.9672 58.3279 13.6235C58.8935 13.2727 59.3409 12.8109 59.6703 12.2382C60.0068 11.6654 60.175 11.039 60.175 10.3588C60.175 9.66437 60.0103 9.02718 59.681 8.44727C59.3517 7.8602 58.9042 7.39126 58.3386 7.04045C57.7802 6.68964 57.1502 6.51423 56.4485 6.51423C55.7398 6.51423 55.1062 6.69322 54.5477 7.05119C53.9893 7.402 53.5454 7.87094 53.2161 8.45801C52.8939 9.03792 52.7328 9.67869 52.7328 10.3803ZM79.5338 5.55845C79.5338 5.35083 79.6161 5.15037 79.7808 4.95706C79.9526 4.7566 80.1602 4.65637 80.4036 4.65637L81.993 4.64563V4.50602C82.0145 3.29608 82.2866 2.34746 82.8092 1.66016C83.3318 0.97286 84.1802 0.639948 85.3544 0.661426L86.5357 0.682904C86.8292 0.682904 87.0798 0.790295 87.2874 1.00508C87.495 1.2127 87.5988 1.46328 87.5988 1.75681C87.5988 2.05035 87.495 2.29735 87.2874 2.49781C87.0798 2.69827 86.8256 2.79851 86.5249 2.79851L85.3221 2.62668C84.9499 2.62668 84.6778 2.68396 84.506 2.79851C84.3413 2.9059 84.2339 3.0992 84.1838 3.37842C84.1408 3.65763 84.1229 4.05498 84.1301 4.57046L84.1408 4.66711L86.3101 4.67785C86.5965 4.67785 86.8364 4.7745 87.0297 4.9678C87.2301 5.16111 87.3304 5.39379 87.3304 5.66585C87.3304 5.89495 87.2373 6.11689 87.0511 6.33167C86.865 6.53929 86.6538 6.6431 86.4175 6.6431L84.1408 6.66458L84.1623 15.3203V15.331C84.1623 15.6174 84.0549 15.8608 83.8402 16.0613C83.6325 16.2546 83.382 16.3512 83.0884 16.3512C82.7949 16.3512 82.5407 16.2546 82.3259 16.0613C82.1183 15.8608 82.0145 15.6174 82.0145 15.331V15.3203L81.993 6.6431L80.554 6.63236C80.2676 6.63236 80.0242 6.53213 79.8237 6.33167C79.6304 6.13121 79.5338 5.87347 79.5338 5.55845ZM93.5917 4.29124C94.1215 4.29124 94.637 4.39863 95.1381 4.61341C95.6464 4.82104 96.0975 5.08593 96.4912 5.40811C96.8922 5.72312 97.1893 6.04887 97.3826 6.38536L97.5007 5.35441C97.5007 5.06088 97.5866 4.8103 97.7584 4.60267C97.9303 4.38789 98.163 4.2805 98.4565 4.2805C98.75 4.2805 99.0006 4.38789 99.2082 4.60267C99.423 4.8103 99.5304 5.06088 99.5304 5.35441V5.37589L99.5089 15.3203C99.5089 15.6138 99.4015 15.868 99.1867 16.0828C98.9791 16.2904 98.7285 16.3942 98.435 16.3942C98.1415 16.3942 97.9088 16.2904 97.737 16.0828C97.5651 15.868 97.4792 15.6138 97.4792 15.3203L97.3611 14.4612C96.9888 15.0984 96.4447 15.5745 95.7288 15.8895C95.0128 16.1973 94.2933 16.3512 93.5702 16.3512C92.7612 16.3512 92.0023 16.1937 91.2935 15.8787C90.5847 15.5566 89.9619 15.1163 89.4249 14.5578C88.888 13.9994 88.4656 13.3586 88.1577 12.6355C87.857 11.9124 87.7067 11.1499 87.7067 10.3481C87.7067 9.5534 87.8534 8.7945 88.147 8.0714C88.4477 7.34114 88.8629 6.69322 89.3927 6.12763C89.9296 5.55487 90.5525 5.10741 91.2613 4.78524C91.9772 4.45591 92.754 4.29124 93.5917 4.29124ZM97.2967 10.3266C97.2967 9.62499 97.132 8.98065 96.8027 8.39358C96.4805 7.80651 96.0402 7.33399 95.4818 6.97602C94.9233 6.61805 94.2861 6.43906 93.5702 6.43906C92.8686 6.43906 92.235 6.61805 91.6694 6.97602C91.1038 7.33399 90.6563 7.81009 90.327 8.40432C89.9977 8.99139 89.833 9.62857 89.833 10.3159C89.833 11.0103 90.0012 11.6547 90.3377 12.2489C90.6742 12.836 91.1253 13.3085 91.6909 13.6665C92.2636 14.0244 92.8936 14.2034 93.5809 14.2034C94.2682 14.2034 94.8911 14.0244 95.4495 13.6665C96.0151 13.3085 96.4626 12.836 96.7919 12.2489C97.1284 11.6547 97.2967 11.0139 97.2967 10.3266ZM108.358 5.69806C108.358 6.27081 108.083 6.58941 107.531 6.65384C107.331 6.67532 107.077 6.61089 106.769 6.46054C106.461 6.30303 106.15 6.22428 105.835 6.22428C105.212 6.22428 104.718 6.38536 104.353 6.70754C103.988 7.02255 103.726 7.44854 103.569 7.98549C103.411 8.52245 103.332 9.12383 103.332 9.78966V15.331C103.332 15.646 103.236 15.8966 103.043 16.0828C102.856 16.2689 102.595 16.362 102.259 16.362C101.929 16.362 101.668 16.2689 101.475 16.0828C101.281 15.8966 101.185 15.6425 101.185 15.3203V5.42959C101.185 5.10741 101.263 4.84251 101.421 4.63489C101.586 4.42727 101.808 4.32346 102.087 4.32346C102.251 4.32346 102.441 4.39505 102.656 4.53824C102.878 4.67427 103.032 4.91053 103.118 5.24702L103.225 6.02024C103.318 5.81977 103.497 5.58709 103.762 5.32219C104.027 5.0573 104.342 4.8282 104.707 4.63489C105.072 4.43443 105.452 4.3342 105.845 4.3342C106.576 4.3342 107.177 4.42011 107.65 4.59194C108.122 4.7566 108.358 5.12531 108.358 5.69806ZM113.728 4.3342C114.423 4.3342 115.031 4.50244 115.554 4.83893C116.084 5.17543 116.517 5.58351 116.853 6.06319C117.254 5.59783 117.738 5.19333 118.303 4.84967C118.869 4.49886 119.499 4.32346 120.193 4.32346C121.11 4.32346 121.869 4.57046 122.47 5.06446C123.079 5.5513 123.53 6.19206 123.823 6.98675C124.117 7.78145 124.263 8.64058 124.263 9.56414L124.274 15.2881C124.274 15.5745 124.17 15.8215 123.963 16.0291C123.755 16.2367 123.501 16.3405 123.2 16.3405C122.9 16.3405 122.645 16.2367 122.438 16.0291C122.23 15.8215 122.126 15.5745 122.126 15.2881L122.116 9.58562C122.116 9.0415 122.065 8.53318 121.965 8.06066C121.865 7.58098 121.682 7.19438 121.418 6.90084C121.153 6.60731 120.77 6.46054 120.268 6.46054C119.739 6.46054 119.284 6.60731 118.905 6.90084C118.532 7.19438 118.246 7.58098 118.045 8.06066C117.852 8.53318 117.756 9.04508 117.756 9.59636L117.766 15.3203C117.766 15.6067 117.659 15.8537 117.444 16.0613C117.236 16.2618 116.986 16.362 116.692 16.362C116.392 16.362 116.137 16.2582 115.93 16.0506C115.722 15.8429 115.618 15.5959 115.618 15.3096V9.60709C115.618 8.93411 115.504 8.36494 115.275 7.89958C115.053 7.43422 114.763 7.08341 114.405 6.84715C114.054 6.60373 113.693 6.48202 113.32 6.48202C112.79 6.48202 112.314 6.72902 111.892 7.22301C111.47 7.71701 111.258 8.48665 111.258 9.53192V15.3203C111.258 15.6067 111.151 15.8537 110.936 16.0613C110.729 16.2618 110.478 16.362 110.184 16.362C109.891 16.362 109.637 16.2582 109.422 16.0506C109.214 15.8429 109.111 15.5959 109.111 15.3096V5.37589C109.111 5.08235 109.164 4.83536 109.272 4.63489C109.386 4.42727 109.594 4.32346 109.894 4.32346C110.131 4.32346 110.349 4.39863 110.55 4.54898C110.75 4.69933 110.911 4.94991 111.033 5.30072L111.237 5.89137C111.466 5.41885 111.817 5.04298 112.289 4.76376C112.769 4.47739 113.249 4.3342 113.728 4.3342Z" fill="#424242"/>
<g clip-path="url(#clip0_576_2711)">
<path d="M67.0773 4.26153C69.0342 3.93538 70.3388 4.39743 70.7465 4.66922C71.9695 4.39743 74.701 3.93538 75.8426 4.26153C77.2695 4.66922 78.2887 5.68843 78.6964 7.31918C79.0225 8.62378 78.1528 10.0371 77.6772 10.5807V11.3961L76.6579 13.4345L74.4157 15.6768C73.7634 15.6768 72.9208 16.0845 72.5811 16.2883C71.7657 17.1037 71.0183 16.628 70.7465 16.2883C69.9311 16.9406 69.7272 16.8319 69.7272 16.696C68.3003 15.405 65.3242 12.6599 64.835 12.0076C64.3458 11.3553 64.6312 10.7845 65.0388 10.5807C64.767 10.0371 64.1827 8.82763 64.0196 8.3384C63.8158 7.72687 64.6311 4.66922 67.0773 4.26153Z" fill="#FFE0C5" stroke="black" stroke-width="0.338878"/>
<path d="M79.0228 8.93975C79.04 8.87812 79.0604 8.81805 79.075 8.75536C79.0781 8.74283 79.0792 8.73029 79.0823 8.71775C79.2315 8.11541 79.2309 7.48569 79.0806 6.88362C78.9303 6.28155 78.6348 5.72547 78.2199 5.26398C77.8374 4.74959 77.3389 4.33262 76.7651 4.04692C76.1912 3.76122 75.5581 3.61482 74.9171 3.61962H74.8899C74.8377 3.61962 74.7792 3.62328 74.7238 3.62484H74.6606C73.5567 3.68575 72.4594 3.83493 71.3792 4.07093L69.0407 3.69745H69.0224C67.9085 3.50502 66.7623 3.68879 65.7645 4.2198C65.2023 4.5586 64.7196 5.01428 64.3489 5.55597L64.3275 5.5847L64.3144 5.60298C63.8241 6.33039 63.5574 7.18545 63.5474 8.06264C63.5374 8.93983 63.7844 9.80076 64.258 10.5392C64.2481 10.5569 64.2423 10.5768 64.2329 10.5951C64.1877 10.6856 64.1491 10.7794 64.1175 10.8756C64.1008 10.9278 64.0883 10.9832 64.0762 11.0375C64.0668 11.0819 64.0574 11.1258 64.0512 11.1702C64.0447 11.2255 64.0409 11.2811 64.0397 11.3368C64.0397 11.3817 64.0345 11.4256 64.0365 11.47C64.0402 11.5285 64.047 11.5865 64.0564 11.6445C64.0627 11.6857 64.0658 11.727 64.0752 11.7678C64.0909 11.832 64.1118 11.8952 64.1358 11.9568C64.1478 11.9898 64.1556 12.0237 64.1703 12.0561C64.2131 12.1517 64.2653 12.242 64.327 12.3267C64.5633 12.6651 64.912 12.9086 65.3111 13.0141C65.2962 13.2368 65.3333 13.46 65.4194 13.6659C65.5055 13.8719 65.6383 14.055 65.8073 14.2009C66.1066 14.4631 66.4737 14.6358 66.8666 14.6992C66.9476 14.9619 67.0897 15.2017 67.2809 15.3991C67.5417 15.6819 67.8942 15.8633 68.2759 15.911C68.3668 16.2208 68.5392 16.5008 68.7753 16.7207C69.0662 17.0069 69.4559 17.1699 69.8639 17.1751C70.1639 17.1737 70.4586 17.0957 70.72 16.9484C71.1086 17.1709 71.5641 17.2462 72.0039 17.1605C72.2348 17.1182 72.4535 17.0257 72.6446 16.8895C72.8357 16.7533 72.9945 16.5767 73.1098 16.3723C73.1207 16.355 73.127 16.3399 73.1369 16.3226C73.5809 16.4135 74.0432 16.3336 74.4313 16.0991C74.7726 15.9064 75.0324 15.5964 75.1626 15.2268C75.6296 15.233 76.0819 15.0648 76.4303 14.754C76.6212 14.5872 76.7695 14.3771 76.8627 14.1413C76.9559 13.9055 76.9914 13.6508 76.9663 13.3985C76.9663 13.3839 76.9626 13.3724 76.9616 13.3583C77.2342 13.2766 77.4794 13.1222 77.6709 12.9117C77.9185 12.6506 78.0779 12.3184 78.1266 11.9619C78.1754 11.6054 78.111 11.2426 77.9425 10.9247C78.4121 10.3821 78.7675 9.75032 78.9872 9.06721C78.9998 9.02699 79.0102 8.98311 79.0228 8.93975ZM78.1285 8.05176C78.1024 8.31439 78.0447 8.57292 77.9566 8.8217L77.9399 8.87394C77.7664 9.33863 77.516 9.77088 77.1992 10.1526C75.5606 8.72245 73.1771 6.63515 72.9813 6.44814C72.755 6.23158 72.4545 6.10974 72.1413 6.10757C72.0442 6.10673 71.9475 6.12065 71.8546 6.14884C71.5234 6.25331 70.7096 6.51448 69.9992 6.77827C69.7275 6.87908 69.4173 6.62156 69.3227 6.40218C69.26 6.27055 69.2496 6.12011 69.2924 5.98116C69.3776 5.82707 69.5207 5.71268 69.6899 5.66358C71.2968 5.09872 72.9756 4.76457 74.6763 4.67111H74.7395C74.7975 4.67111 74.8549 4.66693 74.9082 4.66589C75.2983 4.65947 75.6857 4.73288 76.0464 4.88162C76.5813 5.12546 77.051 5.49239 77.4171 5.95243C77.7438 6.32221 77.9723 6.76822 78.0815 7.24943L78.0862 7.27346C78.1113 7.40205 78.1272 7.53227 78.1337 7.66313C78.1353 7.70544 78.1379 7.75872 78.1379 7.80573C78.1379 7.88147 78.1379 7.95669 78.129 8.03139L78.1285 8.05176ZM65.0933 11.5301C65.0896 11.5076 65.0896 11.4831 65.0896 11.4596C65.0838 11.4092 65.0838 11.3584 65.0896 11.3081C65.0954 11.2784 65.1029 11.2491 65.1121 11.2203C65.1225 11.1738 65.1382 11.1284 65.157 11.085C65.1742 11.0537 65.1941 11.0234 65.216 10.9952C65.2471 10.9443 65.2849 10.8977 65.3283 10.8568L65.3314 10.8542L66.314 10.021C66.3793 9.97075 66.4538 9.93384 66.5334 9.9124C66.6129 9.89097 66.6959 9.88543 66.7776 9.89611C66.8593 9.90678 66.9381 9.93345 67.0095 9.97461C67.0809 10.0158 67.1435 10.0706 67.1936 10.1359C67.2302 10.1894 67.2539 10.2506 67.2629 10.3147C67.272 10.3789 67.2662 10.4442 67.2459 10.5058L65.7049 12.007C65.5986 12.0089 65.4935 11.9832 65.4 11.9324C65.3066 11.8816 65.2279 11.8074 65.1716 11.7171C65.1328 11.6609 65.1061 11.5972 65.0933 11.5301ZM66.4075 12.7811L68.0983 11.1336L68.0905 11.1258C68.1856 11.0784 68.2931 11.0616 68.3982 11.0777C68.5324 11.1143 68.6536 11.1895 68.746 11.294C68.838 11.3723 68.8996 11.4799 68.9205 11.599C68.9283 11.7197 68.9018 11.8401 68.8442 11.9464C68.8389 11.9609 68.8344 11.9758 68.8307 11.9908L67.1221 13.6555C67.0022 13.6608 66.8826 13.6401 66.7714 13.5951C66.6601 13.55 66.5599 13.4816 66.4775 13.3944C66.4096 13.3089 66.3671 13.2061 66.3548 13.0977C66.3424 12.9893 66.3607 12.8797 66.4075 12.7811ZM67.8622 14.3926L69.6278 12.6746C69.7401 12.697 69.843 12.7545 69.9213 12.8386C70.0296 12.9334 70.105 13.0601 70.1365 13.2006C70.1448 13.261 70.1421 13.3223 70.1287 13.3818L68.6019 14.8679C68.5 14.8868 68.395 14.8795 68.2968 14.8466C68.1985 14.8137 68.1103 14.7563 68.0404 14.6799C67.9588 14.5998 67.8977 14.5012 67.8622 14.3926ZM69.5008 15.9659C69.4064 15.8824 69.3318 15.7789 69.2825 15.6629L70.7247 14.2594C70.8276 14.2933 70.9216 14.3492 71.0005 14.4229C71.0742 14.4817 71.1297 14.5601 71.1609 14.649C71.1786 14.7149 71.1786 14.7843 71.1609 14.8501C71.0956 15.0608 70.9869 15.2555 70.8417 15.4216L70.4468 15.8813H70.45C70.4369 15.8896 70.4223 15.8933 70.4103 15.9027C70.263 16.0371 70.0735 16.116 69.8743 16.1257C69.7337 16.1233 69.5996 16.066 69.5008 15.9659ZM71.8378 16.1262C71.7605 16.1383 71.6827 16.1419 71.6049 16.1367L71.6435 16.0918L71.6561 16.0766L71.6566 16.0771C71.8149 15.8815 71.9489 15.6673 72.0557 15.4393L72.2865 15.6838C72.2676 15.733 72.2449 15.7807 72.2186 15.8264C72.1814 15.9015 72.1279 15.9674 72.062 16.0193C71.9962 16.0711 71.9196 16.1077 71.8378 16.1262ZM75.1809 14.1805L74.2516 13.1509C74.1718 13.0576 74.0617 12.9953 73.9405 12.9752C73.8193 12.9551 73.695 12.9783 73.5893 13.0408C73.4836 13.1034 73.4033 13.2012 73.3626 13.317C73.3219 13.4329 73.3234 13.5594 73.3668 13.6743C73.3909 13.7395 73.4279 13.7991 73.4754 13.8498L74.2255 14.6856C74.2203 14.7389 74.2093 14.7916 74.1926 14.8423C74.1491 14.9903 74.0498 15.1156 73.9157 15.1918C73.7524 15.2989 73.5543 15.3393 73.3621 15.3046L72.7352 14.6391C72.6676 14.5679 72.5811 14.5174 72.4858 14.4935C72.3906 14.4695 72.2905 14.4731 72.1972 14.5038C72.1891 14.4531 72.1781 14.4029 72.1643 14.3534C72.0781 14.0804 71.9177 13.8368 71.701 13.6498C71.5492 13.5113 71.3753 13.3992 71.1865 13.3181C71.1901 13.2209 71.184 13.1236 71.1682 13.0277C71.1008 12.672 70.9221 12.3469 70.6578 12.0994C70.4658 11.9049 70.2283 11.7613 69.9668 11.6816C69.9694 11.6116 69.9668 11.5421 69.9589 11.4726C69.9101 11.1208 69.7419 10.7964 69.4826 10.5538C69.2464 10.3065 68.9429 10.1339 68.6097 10.0571C68.4964 10.0352 68.3808 10.0273 68.2655 10.0336C68.2245 9.83952 68.1416 9.65679 68.0226 9.49814C67.8885 9.324 67.7214 9.17801 67.5308 9.06853C67.3402 8.95905 67.1299 8.88824 66.9119 8.86015C66.6939 8.83206 66.4725 8.84724 66.2604 8.90482C66.0482 8.96239 65.8495 9.06124 65.6757 9.1957L65.6574 9.21033L65.0123 9.75357C64.7098 9.20273 64.5651 8.57915 64.594 7.95139C64.6229 7.32363 64.8244 6.716 65.1763 6.19533L65.1873 6.17966C65.4733 5.75322 65.8484 5.39393 66.2868 5.1266C67.0865 4.71012 68.0022 4.57208 68.8892 4.73432L69.1315 4.77297C68.7735 4.93432 68.4874 5.22203 68.3282 5.58104C68.2512 5.77802 68.2146 5.98846 68.2205 6.19987C68.2264 6.41128 68.2747 6.61934 68.3626 6.8117C68.5191 7.19015 68.8109 7.49677 69.1812 7.67176C69.5514 7.84674 69.9736 7.87756 70.3653 7.7582C71.0548 7.50277 71.8457 7.24629 72.1413 7.15279C72.1648 7.15202 72.1882 7.15655 72.2097 7.16604C72.2313 7.17554 72.2504 7.18975 72.2656 7.20764C72.5211 7.44792 75.6045 10.1469 76.8926 11.2694L76.9971 11.3588C77.0782 11.4901 77.1129 11.6449 77.0955 11.7984C77.0782 11.9518 77.0099 12.095 76.9015 12.205C76.8271 12.2852 76.7293 12.34 76.622 12.3617L75.7168 11.4439C75.6183 11.3501 75.4872 11.2983 75.3512 11.2993C75.2151 11.3004 75.0849 11.3542 74.9878 11.4495C74.8907 11.5448 74.8345 11.6741 74.831 11.8101C74.8274 11.9461 74.8768 12.0781 74.9688 12.1783L75.8338 13.0548C75.8375 13.0705 75.8416 13.0862 75.8463 13.1013L75.8526 13.1175C75.8918 13.229 75.9156 13.3454 75.9231 13.4633C75.9376 13.5529 75.9299 13.6446 75.9007 13.7305C75.8715 13.8164 75.8216 13.8938 75.7555 13.9559C75.5993 14.1021 75.3929 14.1826 75.1793 14.1805H75.1809Z" fill="#FF7427"/>
</g>
<defs>
<clipPath id="clip0_576_2711">
<rect width="16.7152" height="16.7152" fill="white" transform="translate(63 1)"/>
</clipPath>
</defs>
</svg>
