<svg width="158" height="64" viewBox="0 0 158 64" fill="none" xmlns="http://www.w3.org/2000/svg">
<path d="M32.6787 44.5723C33.2809 44.5723 33.8669 44.6943 34.4365 44.9385C35.0143 45.1745 35.527 45.4756 35.9746 45.8418C36.4303 46.1999 36.7681 46.5701 36.9878 46.9526L37.1221 45.7808C37.1221 45.4471 37.2197 45.1623 37.415 44.9263C37.6104 44.6821 37.8748 44.5601 38.2085 44.5601C38.5422 44.5601 38.827 44.6821 39.063 44.9263C39.3071 45.1623 39.4292 45.4471 39.4292 45.7808V45.8052L39.4048 57.1089C39.4048 57.4425 39.2827 57.7314 39.0386 57.9756C38.8026 58.2116 38.5177 58.3296 38.1841 58.3296C37.8504 58.3296 37.5859 58.2116 37.3906 57.9756C37.1953 57.7314 37.0977 57.4425 37.0977 57.1089L36.9634 56.1323C36.5402 56.8566 35.9217 57.3978 35.1079 57.7559C34.2941 58.1058 33.4762 58.2808 32.6543 58.2808C31.7347 58.2808 30.8721 58.1017 30.0664 57.7437C29.2607 57.3774 28.5527 56.877 27.9424 56.2422C27.332 55.6074 26.8519 54.8791 26.502 54.0571C26.1602 53.2352 25.9893 52.3685 25.9893 51.457C25.9893 50.5537 26.1561 49.6911 26.4897 48.8691C26.8315 48.0391 27.3035 47.3026 27.9058 46.6597C28.5161 46.0086 29.2241 45.5 30.0298 45.1338C30.8436 44.7594 31.7266 44.5723 32.6787 44.5723ZM36.8901 51.4326C36.8901 50.6351 36.703 49.9027 36.3286 49.2354C35.9624 48.568 35.4619 48.0309 34.8271 47.624C34.1924 47.2171 33.4681 47.0137 32.6543 47.0137C31.8568 47.0137 31.1366 47.2171 30.4937 47.624C29.8507 48.0309 29.3421 48.5721 28.9678 49.2476C28.5934 49.9149 28.4062 50.6392 28.4062 51.4204C28.4062 52.2098 28.5975 52.9422 28.98 53.6177C29.3625 54.285 29.8752 54.8221 30.5181 55.229C31.1691 55.6359 31.8853 55.8394 32.6665 55.8394C33.4478 55.8394 34.1558 55.6359 34.7905 55.229C35.4334 54.8221 35.9421 54.285 36.3164 53.6177C36.6989 52.9422 36.8901 52.2139 36.8901 51.4326ZM47.2544 44.6699C48.3368 44.6699 49.3296 44.9385 50.2329 45.4756C51.1362 46.0127 51.8605 46.737 52.4058 47.6484C52.9591 48.5518 53.2358 49.5568 53.2358 50.6636C53.2358 50.8914 53.2236 51.1234 53.1992 51.3594C53.1667 51.6605 53.0283 51.9168 52.7842 52.1284C52.5482 52.3319 52.2796 52.4336 51.9785 52.4336L43.4458 52.4458C43.5841 53.0317 43.8446 53.5811 44.2271 54.0938C44.6095 54.6064 45.0734 55.0215 45.6187 55.3389C46.172 55.6562 46.7743 55.8149 47.4253 55.8149C48.1252 55.8149 48.7518 55.644 49.3052 55.3022C49.8586 54.9604 50.2899 54.5658 50.5991 54.1182C50.6968 53.9635 50.8433 53.8333 51.0386 53.7275C51.242 53.6217 51.4333 53.5688 51.6123 53.5688C51.946 53.5688 52.2308 53.6909 52.4668 53.9351C52.7109 54.1792 52.833 54.4681 52.833 54.8018C52.833 55.0622 52.7598 55.2941 52.6133 55.4976C52.1087 56.2381 51.4129 56.881 50.5259 57.4263C49.647 57.9634 48.6257 58.2319 47.4619 58.2319C46.526 58.2319 45.6553 58.0488 44.8496 57.6826C44.0521 57.3164 43.3563 56.8159 42.7622 56.1812C42.1681 55.5464 41.7043 54.818 41.3706 53.9961C41.0451 53.166 40.8823 52.2912 40.8823 51.3716C40.8823 50.4845 41.0451 49.6423 41.3706 48.8447C41.6961 48.0391 42.1478 47.3229 42.7256 46.6963C43.3115 46.0697 43.991 45.5773 44.7642 45.2192C45.5373 44.853 46.3674 44.6699 47.2544 44.6699ZM50.7212 49.9922C50.5666 49.1947 50.1678 48.5151 49.5249 47.9536C48.882 47.3921 48.1252 47.1113 47.2544 47.1113C46.3674 47.1113 45.582 47.4002 44.8984 47.978C44.223 48.5558 43.7673 49.2313 43.5312 50.0044L50.7212 49.9922ZM54.2007 51.4204C54.2007 50.5171 54.3594 49.6585 54.6768 48.8447C54.9941 48.0309 55.4417 47.3066 56.0195 46.6719C56.5973 46.0371 57.2687 45.5366 58.0337 45.1704C58.8068 44.8042 59.645 44.6211 60.5483 44.6211C61.4435 44.6211 62.2533 44.7961 62.9775 45.146C63.71 45.4878 64.3366 45.9435 64.8574 46.5132C65.3864 47.0747 65.7811 47.6891 66.0415 48.3564C66.0985 48.4948 66.127 48.6494 66.127 48.8203C66.127 49.154 66.0049 49.4429 65.7607 49.687C65.5247 49.923 65.2399 50.041 64.9062 50.041C64.6784 50.041 64.4546 49.9637 64.2349 49.8091C64.0151 49.6545 63.8605 49.4673 63.771 49.2476C63.5431 48.6616 63.1444 48.153 62.5747 47.7217C62.0132 47.2822 61.3377 47.0625 60.5483 47.0625C59.8078 47.0625 59.1405 47.27 58.5464 47.6851C57.9604 48.092 57.4966 48.625 57.1548 49.2842C56.813 49.9434 56.6421 50.6554 56.6421 51.4204C56.6421 52.1935 56.8171 52.9219 57.167 53.6055C57.5169 54.2809 57.9971 54.8302 58.6074 55.2534C59.2178 55.6685 59.9054 55.876 60.6704 55.876C61.4191 55.876 62.0661 55.6888 62.6113 55.3145C63.1566 54.932 63.5675 54.4884 63.8442 53.9839C63.9419 53.8049 64.0965 53.6543 64.3081 53.5322C64.5197 53.402 64.7272 53.3369 64.9307 53.3369C65.2643 53.3369 65.5492 53.459 65.7852 53.7031C66.0293 53.9391 66.1514 54.224 66.1514 54.5576C66.1514 54.7611 66.0985 54.9604 65.9927 55.1558C65.5288 56.0103 64.8371 56.7508 63.9175 57.3774C62.9979 58.0041 61.9155 58.3174 60.6704 58.3174C59.7427 58.3174 58.8841 58.1343 58.0947 57.7681C57.3135 57.3937 56.6299 56.8851 56.0439 56.2422C55.4661 55.5993 55.0145 54.8669 54.689 54.0449C54.3634 53.2148 54.2007 52.34 54.2007 51.4204ZM73.6714 44.6333C74.6073 44.6333 75.478 44.8123 76.2837 45.1704C77.0975 45.5285 77.8096 46.0249 78.4199 46.6597C79.0303 47.2944 79.5063 48.0228 79.8481 48.8447C80.1981 49.6667 80.373 50.5415 80.373 51.4692C80.373 52.3807 80.1981 53.2474 79.8481 54.0693C79.4982 54.8831 79.014 55.6034 78.3955 56.23C77.7852 56.8485 77.0731 57.3368 76.2593 57.6948C75.4536 58.0529 74.591 58.2319 73.6714 58.2319C72.7599 58.2319 71.8973 58.057 71.0835 57.707C70.2778 57.3571 69.5658 56.8729 68.9473 56.2544C68.3369 55.6359 67.8568 54.9198 67.5068 54.106C67.1569 53.284 66.9819 52.4051 66.9819 51.4692C66.9819 50.5415 67.1569 49.6667 67.5068 48.8447C67.8568 48.0228 68.3369 47.2985 68.9473 46.6719C69.5658 46.0371 70.2778 45.5407 71.0835 45.1826C71.8892 44.8164 72.7518 44.6333 73.6714 44.6333ZM69.4478 51.4937C69.4478 52.283 69.639 53.0033 70.0215 53.6543C70.4121 54.2972 70.9289 54.8099 71.5718 55.1924C72.2147 55.5749 72.9186 55.7661 73.6836 55.7661C74.4648 55.7661 75.1729 55.5708 75.8076 55.1802C76.4505 54.7814 76.9591 54.2565 77.3335 53.6055C77.716 52.9544 77.9072 52.2424 77.9072 51.4692C77.9072 50.6799 77.7201 49.9556 77.3457 49.2964C76.9714 48.6291 76.4627 48.096 75.8198 47.6973C75.1851 47.2985 74.4689 47.0991 73.6714 47.0991C72.8657 47.0991 72.1455 47.3026 71.5107 47.7095C70.876 48.1082 70.3714 48.6413 69.9971 49.3086C69.6309 49.9678 69.4478 50.6961 69.4478 51.4937ZM80.8984 46.0127C80.8984 45.7767 80.992 45.5488 81.1792 45.3291C81.3745 45.1012 81.6105 44.9873 81.8872 44.9873L83.6938 44.9751V44.8164C83.7183 43.4411 84.0275 42.3628 84.6216 41.5815C85.2157 40.8003 86.18 40.4219 87.5146 40.4463L88.8574 40.4707C89.1911 40.4707 89.4759 40.5928 89.7119 40.8369C89.9479 41.0729 90.0659 41.3577 90.0659 41.6914C90.0659 42.0251 89.9479 42.3058 89.7119 42.5337C89.4759 42.7616 89.187 42.8755 88.8452 42.8755L87.478 42.6802C87.0549 42.6802 86.7456 42.7453 86.5503 42.8755C86.3631 42.9976 86.241 43.2173 86.1841 43.5347C86.1353 43.8521 86.1149 44.3037 86.123 44.8896L86.1353 44.9995L88.6011 45.0117C88.9266 45.0117 89.1992 45.1216 89.4189 45.3413C89.6468 45.561 89.7607 45.8255 89.7607 46.1348C89.7607 46.3952 89.6549 46.6475 89.4434 46.8916C89.2318 47.1276 88.9917 47.2456 88.7231 47.2456L86.1353 47.27L86.1597 57.1089V57.1211C86.1597 57.4466 86.0376 57.7233 85.7935 57.9512C85.5575 58.1709 85.2726 58.2808 84.939 58.2808C84.6053 58.2808 84.3164 58.1709 84.0723 57.9512C83.8363 57.7233 83.7183 57.4466 83.7183 57.1211V57.1089L83.6938 47.2456L82.0581 47.2334C81.7326 47.2334 81.4559 47.1195 81.228 46.8916C81.0083 46.6637 80.8984 46.3708 80.8984 46.0127ZM96.8779 44.5723C97.4801 44.5723 98.0661 44.6943 98.6357 44.9385C99.2135 45.1745 99.7262 45.4756 100.174 45.8418C100.63 46.1999 100.967 46.5701 101.187 46.9526L101.321 45.7808C101.321 45.4471 101.419 45.1623 101.614 44.9263C101.81 44.6821 102.074 44.5601 102.408 44.5601C102.741 44.5601 103.026 44.6821 103.262 44.9263C103.506 45.1623 103.628 45.4471 103.628 45.7808V45.8052L103.604 57.1089C103.604 57.4425 103.482 57.7314 103.238 57.9756C103.002 58.2116 102.717 58.3296 102.383 58.3296C102.05 58.3296 101.785 58.2116 101.59 57.9756C101.395 57.7314 101.297 57.4425 101.297 57.1089L101.163 56.1323C100.739 56.8566 100.121 57.3978 99.3071 57.7559C98.4933 58.1058 97.6755 58.2808 96.8535 58.2808C95.9339 58.2808 95.0713 58.1017 94.2656 57.7437C93.46 57.3774 92.752 56.877 92.1416 56.2422C91.5312 55.6074 91.0511 54.8791 90.7012 54.0571C90.3594 53.2352 90.1885 52.3685 90.1885 51.457C90.1885 50.5537 90.3553 49.6911 90.689 48.8691C91.0308 48.0391 91.5028 47.3026 92.105 46.6597C92.7153 46.0086 93.4233 45.5 94.229 45.1338C95.0428 44.7594 95.9258 44.5723 96.8779 44.5723ZM101.089 51.4326C101.089 50.6351 100.902 49.9027 100.528 49.2354C100.162 48.568 99.6611 48.0309 99.0264 47.624C98.3916 47.2171 97.6673 47.0137 96.8535 47.0137C96.056 47.0137 95.3358 47.2171 94.6929 47.624C94.05 48.0309 93.5413 48.5721 93.167 49.2476C92.7926 49.9149 92.6055 50.6392 92.6055 51.4204C92.6055 52.2098 92.7967 52.9422 93.1792 53.6177C93.5617 54.285 94.0744 54.8221 94.7173 55.229C95.3683 55.6359 96.0845 55.8394 96.8657 55.8394C97.647 55.8394 98.355 55.6359 98.9897 55.229C99.6326 54.8221 100.141 54.285 100.516 53.6177C100.898 52.9422 101.089 52.2139 101.089 51.4326ZM113.663 46.1714C113.663 46.8224 113.35 47.1846 112.723 47.2578C112.495 47.2822 112.206 47.209 111.856 47.0381C111.507 46.859 111.153 46.7695 110.794 46.7695C110.086 46.7695 109.525 46.9526 109.11 47.3188C108.695 47.6769 108.398 48.1611 108.219 48.7715C108.04 49.3818 107.95 50.0654 107.95 50.8223V57.1211C107.95 57.4792 107.84 57.764 107.621 57.9756C107.409 58.1872 107.112 58.293 106.729 58.293C106.355 58.293 106.058 58.1872 105.838 57.9756C105.619 57.764 105.509 57.4751 105.509 57.1089V45.8662C105.509 45.5 105.598 45.1989 105.777 44.9629C105.965 44.7269 106.217 44.6089 106.534 44.6089C106.721 44.6089 106.937 44.6903 107.181 44.853C107.433 45.0076 107.608 45.2762 107.706 45.6587L107.828 46.5376C107.934 46.3097 108.137 46.0452 108.438 45.7441C108.74 45.443 109.098 45.1826 109.513 44.9629C109.928 44.735 110.359 44.6211 110.807 44.6211C111.637 44.6211 112.32 44.7188 112.857 44.9141C113.395 45.1012 113.663 45.5203 113.663 46.1714ZM119.767 44.6211C120.556 44.6211 121.248 44.8123 121.842 45.1948C122.444 45.5773 122.937 46.0412 123.319 46.5864C123.775 46.0575 124.324 45.5977 124.967 45.207C125.61 44.8083 126.326 44.6089 127.116 44.6089C128.157 44.6089 129.02 44.8896 129.704 45.4512C130.395 46.0046 130.908 46.7329 131.242 47.6362C131.575 48.5396 131.742 49.5161 131.742 50.5659L131.754 57.0723C131.754 57.3978 131.636 57.6785 131.4 57.9146C131.164 58.1506 130.875 58.2686 130.534 58.2686C130.192 58.2686 129.903 58.1506 129.667 57.9146C129.431 57.6785 129.313 57.3978 129.313 57.0723L129.301 50.5903C129.301 49.9718 129.244 49.394 129.13 48.8569C129.016 48.3117 128.808 47.8722 128.507 47.5386C128.206 47.2049 127.771 47.0381 127.201 47.0381C126.599 47.0381 126.082 47.2049 125.651 47.5386C125.228 47.8722 124.902 48.3117 124.674 48.8569C124.455 49.394 124.345 49.9759 124.345 50.6025L124.357 57.1089C124.357 57.4344 124.235 57.7152 123.991 57.9512C123.755 58.179 123.47 58.293 123.136 58.293C122.794 58.293 122.506 58.175 122.27 57.939C122.034 57.703 121.916 57.4222 121.916 57.0967V50.6147C121.916 49.8498 121.785 49.2028 121.525 48.6738C121.273 48.1449 120.943 47.7461 120.536 47.4775C120.137 47.2008 119.726 47.0625 119.303 47.0625C118.701 47.0625 118.16 47.3433 117.68 47.9048C117.2 48.4663 116.959 49.3411 116.959 50.5293V57.1089C116.959 57.4344 116.837 57.7152 116.593 57.9512C116.357 58.179 116.072 58.293 115.739 58.293C115.405 58.293 115.116 58.175 114.872 57.939C114.636 57.703 114.518 57.4222 114.518 57.0967V45.8052C114.518 45.4715 114.579 45.1908 114.701 44.9629C114.831 44.7269 115.067 44.6089 115.409 44.6089C115.678 44.6089 115.926 44.6943 116.154 44.8652C116.382 45.0361 116.565 45.321 116.703 45.7197L116.935 46.3911C117.195 45.854 117.594 45.4268 118.131 45.1094C118.677 44.7839 119.222 44.6211 119.767 44.6211Z" fill="#424242"/>
<path d="M68.6859 7.23944C72.9232 6.54329 75.7482 7.5295 76.631 8.10962C79.2793 7.52949 85.194 6.54328 87.6658 7.23944C90.7556 8.10962 92.9626 10.2851 93.8454 13.7658C94.5516 16.5504 92.6683 19.567 91.6384 20.7272V22.4676L89.4314 26.8185L84.5761 31.6045C83.1636 31.6045 81.3392 32.4747 80.6035 32.9098C78.8379 34.6501 77.2195 33.6349 76.631 32.9098C74.8654 34.3021 74.424 34.07 74.424 33.78C71.3342 31.0244 64.8899 25.1652 63.8305 23.7729C62.7712 22.3806 63.3891 21.1623 64.2719 20.7272C63.6834 19.567 62.4181 16.9855 62.0649 15.9412C61.6235 14.636 63.3891 8.10962 68.6859 7.23944Z" fill="#FFE0C5" stroke="black"/>
<path d="M94.5083 17.1C94.5454 16.9672 94.5893 16.8378 94.6208 16.7028C94.6276 16.6758 94.6298 16.6488 94.6366 16.6218C94.9579 15.3246 94.9567 13.9683 94.6329 12.6716C94.3091 11.3749 93.6727 10.1773 92.7792 9.18335C91.9553 8.07548 90.8818 7.17746 89.6459 6.56213C88.41 5.94681 87.0464 5.63152 85.6658 5.64185H85.6073C85.4948 5.64185 85.3688 5.64972 85.2496 5.6531H85.1134C82.7358 5.78428 80.3725 6.10556 78.0462 6.61385L73.0096 5.80947H72.9702C70.5713 5.39502 68.1027 5.79083 65.9536 6.93447C64.7428 7.66415 63.7031 8.64557 62.9048 9.81222L62.8587 9.8741L62.8306 9.91347C61.7745 11.4801 61.2002 13.3217 61.1786 15.2109C61.157 17.1001 61.6891 18.9544 62.7091 20.5447C62.6877 20.583 62.6753 20.6257 62.6551 20.6651C62.5576 20.8601 62.4745 21.0621 62.4064 21.2692C62.3704 21.3817 62.3434 21.501 62.3176 21.618C62.2973 21.7136 62.2771 21.8081 62.2636 21.9037C62.2497 22.0229 62.2414 22.1427 62.2388 22.2626C62.2388 22.3593 62.2276 22.4538 62.2321 22.5495C62.2399 22.6755 62.2546 22.8003 62.2748 22.9252C62.2883 23.0141 62.2951 23.103 62.3153 23.1907C62.3491 23.3291 62.3941 23.4652 62.4458 23.598C62.4717 23.6688 62.4886 23.742 62.5201 23.8117C62.6123 24.0176 62.7248 24.2122 62.8576 24.3945C63.3666 25.1233 64.1176 25.6479 64.9771 25.875C64.945 26.3547 65.0248 26.8353 65.2103 27.2789C65.3958 27.7225 65.6818 28.1169 66.0458 28.431C66.6905 28.9958 67.4811 29.3677 68.3273 29.5042C68.5017 30.0701 68.8077 30.5865 69.2194 31.0117C69.7812 31.6208 70.5404 32.0114 71.3626 32.1142C71.5583 32.7813 71.9296 33.3843 72.4381 33.858C73.0647 34.4745 73.9039 34.8255 74.7826 34.8367C75.4287 34.8337 76.0634 34.6656 76.6264 34.3485C77.4634 34.8277 78.4444 34.9897 79.3917 34.8052C79.8889 34.7142 80.36 34.515 80.7715 34.2216C81.1831 33.9282 81.5251 33.5479 81.7733 33.1076C81.7969 33.0705 81.8104 33.0378 81.8318 33.0007C82.7881 33.1965 83.7837 33.0243 84.6196 32.5192C85.3546 32.1042 85.9142 31.4367 86.1946 30.6405C87.2003 30.654 88.1746 30.2917 88.9249 29.6223C89.3361 29.263 89.6554 28.8105 89.8562 28.3027C90.0569 27.7948 90.1334 27.2464 90.0792 26.703C90.0792 26.6715 90.0713 26.6467 90.0691 26.6163C90.6562 26.4404 91.1844 26.1079 91.5968 25.6545C92.13 25.0922 92.4733 24.3767 92.5783 23.6089C92.6833 22.8411 92.5446 22.0597 92.1818 21.375C93.1932 20.2064 93.9585 18.8457 94.4318 17.3745C94.4588 17.2878 94.4813 17.1933 94.5083 17.1ZM92.5823 15.1875C92.5262 15.7531 92.4019 16.3099 92.2122 16.8457L92.1762 16.9582C91.8024 17.9591 91.2631 18.89 90.5809 19.7122C87.0518 16.632 81.9184 12.1365 81.4966 11.7337C81.0093 11.2673 80.3621 11.0049 79.6876 11.0002C79.4784 10.9984 79.2701 11.0284 79.0699 11.0891C78.3567 11.3141 76.6039 11.8766 75.0739 12.4447C74.4889 12.6618 73.8207 12.1072 73.6171 11.6347C73.4821 11.3512 73.4596 11.0272 73.5518 10.728C73.7352 10.3961 74.0434 10.1497 74.4079 10.044C77.8687 8.82742 81.4844 8.10775 85.1472 7.90647H85.2833C85.4082 7.90647 85.5319 7.89747 85.6467 7.89522C86.4869 7.8814 87.3211 8.03952 88.0981 8.35985C89.2502 8.88501 90.2617 9.67528 91.0501 10.6661C91.7537 11.4625 92.2458 12.4231 92.4811 13.4595L92.4912 13.5112C92.5453 13.7882 92.5795 14.0686 92.5936 14.3505C92.5969 14.4416 92.6026 14.5563 92.6026 14.6576C92.6026 14.8207 92.6026 14.9827 92.5834 15.1436L92.5823 15.1875ZM64.5079 22.6788C64.5001 22.6305 64.5001 22.5776 64.5001 22.527C64.4877 22.4186 64.4877 22.3091 64.5001 22.2007C64.5125 22.1368 64.5286 22.0737 64.5484 22.0117C64.5709 21.9116 64.6047 21.8137 64.6452 21.7203C64.6823 21.6528 64.7251 21.5876 64.7723 21.5268C64.8393 21.4171 64.9206 21.3169 65.0142 21.2287L65.0209 21.2231L67.1371 19.4287C67.2777 19.3205 67.4382 19.241 67.6096 19.1948C67.7809 19.1486 67.9597 19.1367 68.1356 19.1597C68.3116 19.1827 68.4813 19.2401 68.635 19.3288C68.7888 19.4174 68.9235 19.5355 69.0316 19.6762C69.1103 19.7914 69.1613 19.9232 69.1808 20.0613C69.2004 20.1995 69.1878 20.3402 69.1441 20.4727L65.8253 23.706C65.5962 23.7101 65.37 23.6547 65.1687 23.5453C64.9673 23.4359 64.7978 23.2761 64.6767 23.0816C64.5931 22.9605 64.5356 22.8234 64.5079 22.6788ZM67.3384 25.3732L70.9801 21.825L70.9632 21.8081C71.1681 21.7061 71.3996 21.6699 71.6258 21.7046C71.9149 21.7833 72.1759 21.9453 72.3751 22.1703C72.5731 22.3391 72.7058 22.5708 72.7508 22.8273C72.7675 23.0872 72.7106 23.3465 72.5866 23.5755C72.5751 23.6068 72.5653 23.6387 72.5573 23.6711L68.8774 27.2565C68.6192 27.2677 68.3616 27.2233 68.1221 27.1263C67.8826 27.0292 67.6667 26.8818 67.4892 26.694C67.3431 26.5099 67.2515 26.2886 67.2249 26.0552C67.1982 25.8217 67.2376 25.5854 67.3384 25.3732ZM70.4716 28.8438L74.2741 25.1437C74.5159 25.1921 74.7376 25.3158 74.9063 25.497C75.1395 25.7012 75.3018 25.9742 75.3698 26.2766C75.3876 26.4067 75.3819 26.5389 75.3529 26.667L72.0646 29.8676C71.8452 29.9083 71.619 29.8925 71.4074 29.8217C71.1959 29.7508 71.0058 29.6272 70.8552 29.4626C70.6795 29.2901 70.5479 29.0779 70.4716 28.8438ZM74.0007 32.2323C73.7972 32.0527 73.6365 31.8297 73.5304 31.5798L76.6366 28.557C76.8582 28.6301 77.0607 28.7505 77.2306 28.9091C77.3892 29.0358 77.5089 29.2046 77.5759 29.3962C77.6141 29.5381 77.6141 29.6875 77.5759 29.8293C77.4354 30.2832 77.2012 30.7024 76.8886 31.0601L76.0381 32.0501H76.0448C76.0167 32.0681 75.9852 32.076 75.9593 32.0962C75.6421 32.3857 75.234 32.5556 74.8051 32.5766C74.5022 32.5715 74.2135 32.4479 74.0007 32.2323ZM79.0339 32.5777C78.8674 32.6036 78.6998 32.6115 78.5322 32.6002L78.6154 32.5035L78.6424 32.4708L78.6436 32.472C78.9845 32.0505 79.2731 31.5893 79.5031 31.0983L80.0003 31.6248C79.9596 31.7309 79.9107 31.8335 79.8541 31.932C79.7739 32.0937 79.6587 32.2356 79.5168 32.3473C79.375 32.459 79.21 32.5377 79.0339 32.5777ZM86.2339 28.3871L84.2326 26.1697C84.0607 25.9686 83.8234 25.8346 83.5625 25.7913C83.3016 25.7479 83.0337 25.7979 82.806 25.9326C82.5784 26.0673 82.4055 26.2779 82.3178 26.5275C82.2302 26.777 82.2334 27.0495 82.3268 27.297C82.3789 27.4373 82.4584 27.5658 82.5608 27.675L84.1763 29.475C84.1651 29.5897 84.1414 29.7033 84.1054 29.8125C84.0117 30.1311 83.798 30.401 83.5092 30.5651C83.1575 30.7958 82.7306 30.8828 82.3167 30.8081L80.9667 29.3748C80.8209 29.2216 80.6347 29.1128 80.4295 29.0612C80.2244 29.0096 80.0089 29.0174 79.8079 29.0835C79.7905 28.9742 79.7669 28.866 79.7371 28.7595C79.5513 28.1716 79.2058 27.647 78.7392 27.2441C78.4123 26.9458 78.0377 26.7043 77.6311 26.5297C77.6389 26.3204 77.6257 26.1109 77.5917 25.9042C77.4466 25.1381 77.0617 24.438 76.4926 23.9051C76.0788 23.4862 75.5673 23.1769 75.0042 23.0051C75.0098 22.8543 75.0042 22.7047 74.9873 22.5551C74.8822 21.7974 74.52 21.0988 73.9613 20.5762C73.4526 20.0437 72.7991 19.6718 72.0814 19.5063C71.8373 19.4592 71.5883 19.4422 71.3401 19.4557C71.2518 19.0378 71.0732 18.6443 70.8169 18.3026C70.5281 17.9275 70.1682 17.6131 69.7577 17.3773C69.3472 17.1415 68.8942 16.989 68.4247 16.9285C67.9552 16.868 67.4784 16.9007 67.0215 17.0247C66.5647 17.1487 66.1368 17.3616 65.7623 17.6512L65.7229 17.6827L64.3336 18.8527C63.6821 17.6664 63.3704 16.3233 63.4327 14.9713C63.495 13.6193 63.929 12.3106 64.6868 11.1892L64.7104 11.1555C65.3264 10.237 66.1344 9.46322 67.0786 8.88747C68.8009 7.99048 70.7731 7.69318 72.6833 8.0426L73.2053 8.12585C72.4341 8.47336 71.8181 9.093 71.4751 9.86622C71.3093 10.2905 71.2304 10.7437 71.2431 11.199C71.2559 11.6543 71.36 12.1024 71.5493 12.5167C71.8863 13.3318 72.5148 13.9922 73.3122 14.3691C74.1096 14.7459 75.0189 14.8123 75.8626 14.5552C77.3476 14.0051 79.0508 13.4527 79.6876 13.2513C79.7382 13.2497 79.7886 13.2594 79.8349 13.2799C79.8813 13.3003 79.9224 13.3309 79.9553 13.3695C80.5054 13.887 87.1463 19.6998 89.9206 22.1175L90.1456 22.3098C90.3203 22.5928 90.3949 22.9262 90.3576 23.2567C90.3203 23.5871 90.1731 23.8955 89.9397 24.1323C89.7794 24.3051 89.5688 24.4232 89.3378 24.4698L87.3882 22.4932C87.176 22.2912 86.8936 22.1796 86.6007 22.1819C86.3077 22.1841 86.0271 22.3001 85.8181 22.5054C85.6091 22.7106 85.4879 22.989 85.4803 23.2819C85.4727 23.5748 85.5791 23.8591 85.7772 24.075L87.6402 25.9627C87.6481 25.9965 87.6571 26.0302 87.6672 26.0628L87.6807 26.0977C87.7651 26.3379 87.8162 26.5884 87.8326 26.8425C87.8638 27.0354 87.8472 27.233 87.7842 27.4179C87.7213 27.6029 87.6139 27.7696 87.4714 27.9033C87.1351 28.2183 86.6907 28.3916 86.2306 28.3871H86.2339Z" fill="#FF7427"/>
</svg>
