<svg width="54" height="40" viewBox="0 0 54 40" fill="none" xmlns="http://www.w3.org/2000/svg">
<path d="M18.2108 10.6861L19.281 19.2481C19.4061 20.2489 20.2569 21 21.2656 21L32.7344 21C33.7431 21 34.5939 20.2489 34.719 19.2481L35.7892 10.6861C35.9012 9.79077 35.2031 9 34.3008 9L19.6992 9C18.7969 9 18.0988 9.79077 18.2108 10.6861Z" stroke="#717171" stroke-width="1.5"/>
<path d="M21 9L25.4815 3.7716C26.2797 2.84038 27.7203 2.84038 28.5185 3.7716L33 9H21Z" stroke="#717171" stroke-width="1.5" stroke-linecap="round"/>
<path d="M22.5 12.5V17.5" stroke="#717171" stroke-width="1.5" stroke-linecap="round"/>
<path d="M27 12.5V17.5" stroke="#717171" stroke-width="1.5" stroke-linecap="round"/>
<path d="M31.5 12.5V17.5" stroke="#717171" stroke-width="1.5" stroke-linecap="round"/>
<path d="M16.7216 29.74H17.5216V38.78H16.7216V29.74ZM15.1916 33.36H16.9316V34.05H15.1916V33.36ZM14.6716 29.94H15.4516V38.32H14.6716V29.94ZM10.1716 35.86H10.7616C12.0816 35.86 12.9816 35.81 14.0316 35.59L14.1116 36.28C13.0316 36.51 12.1216 36.55 10.7616 36.55H10.1716V35.86ZM10.1716 30.84H13.5316V31.52H10.9916V36.17H10.1716V30.84ZM22.6208 31.75H25.3508V32.44H22.6208V31.75ZM22.6208 34.61H25.3508V35.3H22.6208V34.61ZM20.9608 30.43C22.2708 30.43 23.2108 31.66 23.2108 33.58C23.2108 35.51 22.2708 36.74 20.9608 36.74C19.6408 36.74 18.7108 35.51 18.7108 33.58C18.7108 31.66 19.6408 30.43 20.9608 30.43ZM20.9608 31.18C20.0908 31.18 19.4908 32.12 19.4908 33.58C19.4908 35.05 20.0908 36.01 20.9608 36.01C21.8308 36.01 22.4308 35.05 22.4308 33.58C22.4308 32.12 21.8308 31.18 20.9608 31.18ZM25.1708 29.73H25.9908V38.79H25.1708V29.73ZM33.37 29.74H34.2V38.78H33.37V29.74ZM34 33.45H35.68V34.15H34V33.45ZM27.2 31.18H32.53V31.86H27.2V31.18ZM29.9 32.61C31.18 32.61 32.1 33.47 32.1 34.69C32.1 35.91 31.18 36.77 29.9 36.77C28.63 36.77 27.7 35.91 27.7 34.69C27.7 33.47 28.63 32.61 29.9 32.61ZM29.9 33.3C29.08 33.3 28.49 33.87 28.49 34.69C28.49 35.5 29.08 36.08 29.9 36.08C30.72 36.08 31.31 35.5 31.31 34.69C31.31 33.87 30.72 33.3 29.9 33.3ZM29.47 29.85H30.3V31.49H29.47V29.85ZM42.5292 29.74H43.3592V38.78H42.5292V29.74ZM39.8792 30.71H40.6992C40.6992 33.33 39.5192 35.62 36.4992 37.1L36.0592 36.43C38.6692 35.17 39.8792 33.25 39.8792 30.85V30.71ZM36.4692 30.71H40.2392V31.39H36.4692V30.71Z" fill="#717171"/>
</svg>
