<svg width="13" height="13" viewBox="0 0 13 13" fill="none" xmlns="http://www.w3.org/2000/svg">
<g clip-path="url(#clip0_839_2819)">
<path d="M13 6.5C13.0005 4.7767 12.3164 3.12379 11.0982 1.90483C9.88008 0.685869 8.22763 0.000689442 6.50433 0C5.65097 0.000227594 4.80601 0.168536 4.01769 0.495314C3.22937 0.822093 2.51313 1.30094 1.90987 1.90452C1.30661 2.5081 0.828146 3.2246 0.501788 4.01309C0.17543 4.80158 0.00757207 5.64664 0.00779973 6.5C0.00779973 7.63187 0.292067 9.022 0.828534 10.0135L0.0294669 12.4315C0.00440213 12.5078 0.00106698 12.5897 0.0198355 12.6678C0.038604 12.746 0.0787366 12.8173 0.135746 12.874C0.192756 12.9306 0.264397 12.9703 0.342662 12.9886C0.420927 13.0069 0.502732 13.003 0.578933 12.9775L2.98047 12.1749C3.99707 12.7573 5.32567 13 6.50433 13C8.22763 12.9993 9.88008 12.3141 11.0982 11.0952C12.3164 9.87621 13.0005 8.2233 13 6.5Z" fill="#666666"/>
</g>
<defs>
<clipPath id="clip0_839_2819">
<rect width="13" height="13" fill="white" transform="matrix(0 1 -1 0 13 0)"/>
</clipPath>
</defs>
</svg>
