<svg width="57" height="41" viewBox="0 0 57 41" fill="none" xmlns="http://www.w3.org/2000/svg">
<path d="M27 12.6989C29.2091 12.6989 31 10.8283 31 8.52074C31 6.21318 29.2091 4.34253 27 4.34253C24.7909 4.34253 23 6.21318 23 8.52074C23 10.8283 24.7909 12.6989 27 12.6989Z" stroke="#717171" stroke-width="1.8" stroke-linecap="round" stroke-linejoin="round"/>
<path d="M32.5999 21.0554C32.5999 19.504 32.0099 18.0162 30.9597 16.9192C29.9095 15.8222 28.4851 15.2059 26.9999 15.2059C25.5147 15.2059 24.0903 15.8222 23.0401 16.9192C21.9899 18.0162 21.3999 19.504 21.3999 21.0554H32.5999Z" stroke="#717171" stroke-width="1.8" stroke-linecap="round" stroke-linejoin="round"/>
<path d="M33.4 9.35642C34.0818 9.35642 34.7523 9.17437 35.3478 8.82755C35.9433 8.48073 36.4441 7.98066 36.8026 7.37482C37.161 6.76899 37.3653 6.0775 37.3959 5.36601C37.4266 4.65453 37.2826 3.94667 36.9777 3.30966C36.6727 2.67264 36.217 2.12762 35.6537 1.72634C35.0904 1.32506 34.4382 1.08084 33.7592 1.01688C33.0801 0.952924 32.3967 1.07134 31.7737 1.3609C31.1508 1.65045 30.609 2.10152 30.2 2.67128" stroke="#717171" stroke-width="1.8" stroke-linecap="round" stroke-linejoin="round"/>
<path d="M34.1999 17.7128H38.9999C38.9999 16.1615 38.4099 14.6736 37.3597 13.5766C36.3095 12.4796 34.8851 11.8633 33.3999 11.8633" stroke="#717171" stroke-width="1.8" stroke-linecap="round" stroke-linejoin="round"/>
<path d="M23.8001 2.67128C23.391 2.10152 22.8493 1.65045 22.2263 1.3609C21.6034 1.07134 20.9199 0.952924 20.2409 1.01688C19.5618 1.08084 18.9097 1.32506 18.3464 1.72634C17.7831 2.12762 17.3273 2.67264 17.0224 3.30966C16.7175 3.94667 16.5735 4.65453 16.6041 5.36601C16.6348 6.0775 16.839 6.76899 17.1975 7.37482C17.556 7.98066 18.0567 8.48073 18.6522 8.82755C19.2478 9.17437 19.9183 9.35642 20.6001 9.35642" stroke="#717171" stroke-width="1.8" stroke-linecap="round" stroke-linejoin="round"/>
<path d="M20.6 11.8633C19.1148 11.8633 17.6904 12.4796 16.6402 13.5766C15.59 14.6736 15 16.1615 15 17.7128H19.8" stroke="#717171" stroke-width="1.8" stroke-linecap="round" stroke-linejoin="round"/>
<path d="M1.14012 30.3936H6.48012V31.0736H1.14012V30.3936ZM3.81012 31.5336C5.09012 31.5336 5.97012 32.1736 5.97012 33.1736C5.97012 34.1636 5.09012 34.7936 3.81012 34.7936C2.51012 34.7936 1.64012 34.1636 1.64012 33.1736C1.64012 32.1736 2.51012 31.5336 3.81012 31.5336ZM3.81012 32.1836C2.98012 32.1836 2.43012 32.5636 2.43012 33.1736C2.43012 33.7636 2.98012 34.1536 3.81012 34.1536C4.62012 34.1536 5.18012 33.7636 5.18012 33.1736C5.18012 32.5636 4.62012 32.1836 3.81012 32.1836ZM7.30012 29.4436H8.13012V35.0936H7.30012V29.4436ZM7.90012 31.9336H9.47012V32.6236H7.90012V31.9336ZM2.26012 35.5836H8.13012V38.4836H7.30012V36.2636H2.26012V35.5836ZM3.39012 29.3936H4.22012V30.7736H3.39012V29.3936ZM11.7093 30.0036H12.3693V31.2136C12.3693 32.5636 11.5893 33.9836 10.2593 34.5736L9.80934 33.9236C10.9993 33.4036 11.7093 32.2336 11.7093 31.2136V30.0036ZM11.8393 30.0036H12.4993V31.2136C12.4993 32.2136 13.1793 33.2336 14.3393 33.6836L13.8893 34.3136C12.5893 33.7936 11.8393 32.5436 11.8393 31.2136V30.0036ZM16.6393 29.4536H17.4293V35.0236H16.6393V29.4536ZM15.1993 31.8636H16.9093V32.5436H15.1993V31.8636ZM14.6993 29.6236H15.4893V34.7336H14.6993V29.6236ZM14.4593 35.2236C16.3193 35.2236 17.4793 35.8236 17.4793 36.8536C17.4793 37.8736 16.3193 38.4636 14.4593 38.4636C12.5893 38.4636 11.4493 37.8736 11.4493 36.8536C11.4493 35.8236 12.5893 35.2236 14.4593 35.2236ZM14.4593 35.8736C13.0993 35.8736 12.2593 36.2336 12.2593 36.8536C12.2593 37.4636 13.0993 37.8236 14.4593 37.8236C15.8193 37.8236 16.6493 37.4636 16.6493 36.8536C16.6493 36.2336 15.8193 35.8736 14.4593 35.8736ZM21.0886 34.8636H21.9286V36.3536H21.0886V34.8636ZM25.0486 29.4436H25.8786V38.4836H25.0486V29.4436ZM18.6786 36.7636L18.5686 36.0736C20.2786 36.0636 22.5286 36.0436 24.4786 35.7936L24.5386 36.4036C22.5286 36.7436 20.3486 36.7636 18.6786 36.7636ZM18.7586 30.5436H24.2486V31.2136H18.7586V30.5436ZM21.4986 31.7336C22.7986 31.7336 23.6786 32.3936 23.6786 33.4036C23.6786 34.4236 22.7986 35.0736 21.4986 35.0736C20.2086 35.0736 19.3286 34.4236 19.3286 33.4036C19.3286 32.3936 20.2086 31.7336 21.4986 31.7336ZM21.4986 32.3736C20.6886 32.3736 20.1186 32.7836 20.1186 33.4036C20.1186 34.0236 20.6886 34.4336 21.4986 34.4336C22.3186 34.4336 22.8886 34.0236 22.8886 33.4036C22.8886 32.7836 22.3186 32.3736 21.4986 32.3736ZM21.0886 29.4436H21.9186V30.9136H21.0886V29.4436ZM30.0558 30.09L27.7121 38.7974H26.945L29.2888 30.09H30.0558ZM30.2822 33.8936H38.4522V34.5736H30.2822V33.8936ZM33.9522 32.4436H34.7722V34.1736H33.9522V32.4436ZM31.3122 32.1836H37.5022V32.8636H31.3122V32.1836ZM31.3122 29.8536H37.4322V30.5236H32.1322V32.5836H31.3122V29.8536ZM34.3522 35.2236C36.2822 35.2236 37.4522 35.8136 37.4522 36.8436C37.4522 37.8936 36.2822 38.4736 34.3522 38.4736C32.4222 38.4736 31.2522 37.8936 31.2522 36.8436C31.2522 35.8136 32.4222 35.2236 34.3522 35.2236ZM34.3522 35.8636C32.9422 35.8636 32.0922 36.2236 32.0922 36.8436C32.0922 37.4736 32.9422 37.8236 34.3522 37.8236C35.7722 37.8236 36.6122 37.4736 36.6122 36.8436C36.6122 36.2236 35.7722 35.8636 34.3522 35.8636ZM41.3814 30.1336C42.7114 30.1336 43.6514 31.3636 43.6514 33.2836C43.6514 35.2136 42.7114 36.4436 41.3814 36.4436C40.0514 36.4436 39.1114 35.2136 39.1114 33.2836C39.1114 31.3636 40.0514 30.1336 41.3814 30.1336ZM41.3814 30.8836C40.5014 30.8836 39.9014 31.8236 39.9014 33.2836C39.9014 34.7536 40.5014 35.7136 41.3814 35.7136C42.2514 35.7136 42.8614 34.7536 42.8614 33.2836C42.8614 31.8236 42.2514 30.8836 41.3814 30.8836ZM45.0914 29.4436H45.9314V38.4836H45.0914V29.4436ZM45.7314 33.0536H47.4114V33.7536H45.7314V33.0536ZM54.2607 29.4336H55.0907V38.4936H54.2607V29.4336ZM48.2007 35.6236H48.9507C50.4607 35.6236 51.8107 35.5636 53.4107 35.3036L53.5007 35.9836C51.8607 36.2536 50.5007 36.3136 48.9507 36.3136H48.2007V35.6236ZM48.1807 30.2836H52.3607V33.5136H49.0307V35.8836H48.2007V32.8336H51.5207V30.9636H48.1807V30.2836Z" fill="#717171"/>
</svg>
