<svg width="16" height="16" viewBox="0 0 16 16" fill="none" xmlns="http://www.w3.org/2000/svg">
<path d="M9.71587 12.2139L9.71531 12.2143C9.36494 12.4911 9.05215 12.7339 8.75079 12.91C8.44925 13.0862 8.20639 13.1667 7.99992 13.1667C7.79356 13.1667 7.55075 13.0862 7.24905 12.9098C6.94751 12.7336 6.63472 12.491 6.28406 12.2146C6.08966 12.0613 5.89175 11.9087 5.69265 11.7552C4.85698 11.1108 4.00018 10.4501 3.29226 9.65307C2.4328 8.68538 1.83325 7.55628 1.83325 6.09135C1.83325 4.65739 2.64349 3.45489 3.74942 2.94944C4.82381 2.45841 6.26753 2.58863 7.63961 4.01469L7.99988 4.38912L8.36019 4.01472C9.73224 2.58901 11.176 2.4589 12.2504 2.95001C13.3563 3.45554 14.1666 4.65806 14.1666 6.09202C14.1666 7.55664 13.5672 8.68574 12.7078 9.65332C11.9987 10.4517 11.14 11.1133 10.3028 11.7584C10.1052 11.9106 9.90882 12.0619 9.71587 12.2139Z" stroke="#666666"/>
</svg>
