<svg width="34" height="30" viewBox="0 0 34 30" fill="none" xmlns="http://www.w3.org/2000/svg">
<path d="M7.68586 2.23944C11.9232 1.54329 14.7482 2.5295 15.631 3.10962C18.2793 2.52949 24.194 1.54328 26.6658 2.23944C29.7556 3.10962 31.9626 5.28506 32.8454 8.76579C33.5516 11.5504 31.6683 14.567 30.6384 15.7272V17.4676L28.4314 21.8185L23.5761 26.6045C22.1636 26.6045 20.3392 27.4747 19.6035 27.9098C17.8379 29.6501 16.2195 28.6349 15.631 27.9098C13.8654 29.3021 13.424 29.07 13.424 28.78C10.3342 26.0244 3.88988 20.1652 2.83053 18.7729C1.77118 17.3806 2.38914 16.1623 3.27193 15.7272C2.6834 14.567 1.41806 11.9855 1.06494 10.9412C0.623547 9.63597 2.38912 3.10962 7.68586 2.23944Z" fill="#FFE0C5" stroke="black"/>
<path d="M33.5083 12.1C33.5454 11.9672 33.5893 11.8378 33.6208 11.7028C33.6276 11.6758 33.6298 11.6488 33.6366 11.6218C33.9579 10.3246 33.9567 8.96831 33.6329 7.67162C33.3091 6.37493 32.6727 5.17728 31.7792 4.18335C30.9553 3.07548 29.8818 2.17746 28.6459 1.56213C27.41 0.946806 26.0464 0.631517 24.6658 0.641847H24.6073C24.4948 0.641847 24.3688 0.649723 24.2496 0.653098H24.1134C21.7358 0.784279 19.3725 1.10556 17.0462 1.61385L12.0096 0.809473H11.9702C9.57128 0.395023 7.10266 0.790826 4.95356 1.93447C3.74283 2.66415 2.70309 3.64557 1.90482 4.81222L1.85869 4.8741L1.83057 4.91347C0.774478 6.48011 0.200202 8.32168 0.178611 10.2109C0.157019 12.1001 0.689057 13.9544 1.70907 15.5447C1.68769 15.583 1.67532 15.6257 1.65507 15.6651C1.55756 15.8601 1.47446 16.0621 1.40644 16.2692C1.37044 16.3817 1.34344 16.501 1.31757 16.618C1.29732 16.7136 1.27707 16.8081 1.26357 16.9037C1.24968 17.0229 1.24142 17.1427 1.23882 17.2626C1.23882 17.3593 1.22757 17.4538 1.23207 17.5495C1.23994 17.6755 1.25457 17.8003 1.27482 17.9252C1.28832 18.0141 1.29507 18.103 1.31532 18.1907C1.34907 18.3291 1.39407 18.4652 1.44582 18.598C1.47169 18.6688 1.48857 18.742 1.52007 18.8117C1.61232 19.0176 1.72482 19.2122 1.85757 19.3945C2.36656 20.1233 3.1176 20.6479 3.97706 20.875C3.94499 21.3547 4.02485 21.8353 4.21032 22.2789C4.39579 22.7225 4.68182 23.1169 5.04581 23.431C5.69049 23.9958 6.48114 24.3677 7.32731 24.5042C7.50169 25.0701 7.80769 25.5865 8.21944 26.0117C8.78118 26.6208 9.5404 27.0114 10.3626 27.1142C10.5583 27.7813 10.9296 28.3843 11.4381 28.858C12.0647 29.4745 12.9039 29.8255 13.7826 29.8367C14.4287 29.8337 15.0634 29.6656 15.6264 29.3485C16.4634 29.8277 17.4444 29.9897 18.3917 29.8052C18.8889 29.7142 19.36 29.515 19.7715 29.2216C20.1831 28.9282 20.5251 28.5479 20.7733 28.1076C20.7969 28.0705 20.8104 28.0378 20.8318 28.0007C21.7881 28.1965 22.7837 28.0243 23.6196 27.5192C24.3546 27.1042 24.9142 26.4367 25.1946 25.6405C26.2003 25.654 27.1746 25.2917 27.9249 24.6223C28.3361 24.263 28.6554 23.8105 28.8562 23.3027C29.0569 22.7948 29.1334 22.2464 29.0792 21.703C29.0792 21.6715 29.0713 21.6467 29.0691 21.6163C29.6562 21.4404 30.1844 21.1079 30.5968 20.6545C31.13 20.0922 31.4733 19.3767 31.5783 18.6089C31.6833 17.8411 31.5446 17.0597 31.1818 16.375C32.1932 15.2064 32.9585 13.8457 33.4318 12.3745C33.4588 12.2878 33.4813 12.1933 33.5083 12.1ZM31.5823 10.1875C31.5262 10.7531 31.4019 11.3099 31.2122 11.8457L31.1762 11.9582C30.8024 12.9591 30.2631 13.89 29.5809 14.7122C26.0518 11.632 20.9184 7.13647 20.4966 6.73372C20.0093 6.26731 19.3621 6.00489 18.6876 6.00022C18.4784 5.99842 18.2701 6.02838 18.0699 6.0891C17.3567 6.3141 15.6039 6.8766 14.0739 7.44472C13.4889 7.66185 12.8207 7.10722 12.6171 6.63472C12.4821 6.35122 12.4596 6.02722 12.5518 5.72797C12.7352 5.3961 13.0434 5.14972 13.4079 5.04397C16.8687 3.82742 20.4844 3.10775 24.1472 2.90647H24.2833C24.4082 2.90647 24.5319 2.89747 24.6467 2.89522C25.4869 2.8814 26.3211 3.03952 27.0981 3.35985C28.2502 3.88501 29.2617 4.67528 30.0501 5.6661C30.7537 6.4625 31.2458 7.42309 31.4811 8.45947L31.4912 8.51122C31.5453 8.78817 31.5795 9.06864 31.5936 9.35047C31.5969 9.4416 31.6026 9.55635 31.6026 9.6576C31.6026 9.82072 31.6026 9.98272 31.5834 10.1436L31.5823 10.1875ZM3.50794 17.6788C3.50006 17.6305 3.50006 17.5776 3.50006 17.527C3.48766 17.4186 3.48766 17.3091 3.50006 17.2007C3.51248 17.1368 3.52863 17.0737 3.54844 17.0117C3.57094 16.9116 3.60469 16.8137 3.64519 16.7203C3.68232 16.6528 3.72506 16.5876 3.77232 16.5268C3.83927 16.4171 3.92062 16.3169 4.01419 16.2287L4.02094 16.2231L6.13706 14.4287C6.27766 14.3205 6.43822 14.241 6.60956 14.1948C6.78091 14.1486 6.95967 14.1367 7.13563 14.1597C7.31158 14.1827 7.48128 14.2401 7.63502 14.3288C7.78875 14.4174 7.9235 14.5355 8.03156 14.6762C8.11025 14.7914 8.16133 14.9232 8.18084 15.0613C8.20035 15.1995 8.18777 15.3402 8.14406 15.4727L4.82531 18.706C4.59622 18.7101 4.36997 18.6547 4.16865 18.5453C3.96734 18.4359 3.79783 18.2761 3.67669 18.0816C3.59309 17.9605 3.53562 17.8234 3.50794 17.6788ZM6.33844 20.3732L9.98006 16.825L9.96319 16.8081C10.1681 16.7061 10.3996 16.6699 10.6258 16.7046C10.9149 16.7833 11.1759 16.9453 11.3751 17.1703C11.5731 17.3391 11.7058 17.5708 11.7508 17.8273C11.7675 18.0872 11.7106 18.3465 11.5866 18.5755C11.5751 18.6068 11.5653 18.6387 11.5573 18.6711L7.87744 22.2565C7.61924 22.2677 7.36164 22.2233 7.12211 22.1263C6.88258 22.0292 6.66673 21.8818 6.48919 21.694C6.34309 21.5099 6.25152 21.2886 6.22487 21.0552C6.19823 20.8217 6.23757 20.5854 6.33844 20.3732ZM9.47156 23.8438L13.2741 20.1437C13.5159 20.1921 13.7376 20.3158 13.9063 20.497C14.1395 20.7012 14.3018 20.9742 14.3698 21.2766C14.3876 21.4067 14.3819 21.5389 14.3529 21.667L11.0646 24.8676C10.8452 24.9083 10.619 24.8925 10.4074 24.8217C10.1959 24.7508 10.0058 24.6272 9.85519 24.4626C9.6795 24.2901 9.54791 24.0779 9.47156 23.8438ZM13.0007 27.2323C12.7972 27.0527 12.6365 26.8297 12.5304 26.5798L15.6366 23.557C15.8582 23.6301 16.0607 23.7505 16.2306 23.9091C16.3892 24.0358 16.5089 24.2046 16.5759 24.3962C16.6141 24.5381 16.6141 24.6875 16.5759 24.8293C16.4354 25.2832 16.2012 25.7024 15.8886 26.0601L15.0381 27.0501H15.0448C15.0167 27.0681 14.9852 27.076 14.9593 27.0962C14.6421 27.3857 14.234 27.5556 13.8051 27.5766C13.5022 27.5715 13.2135 27.4479 13.0007 27.2323ZM18.0339 27.5777C17.8674 27.6036 17.6998 27.6115 17.5322 27.6002L17.6154 27.5035L17.6424 27.4708L17.6436 27.472C17.9845 27.0505 18.2731 26.5893 18.5031 26.0983L19.0003 26.6248C18.9596 26.7309 18.9107 26.8335 18.8541 26.932C18.7739 27.0937 18.6587 27.2356 18.5168 27.3473C18.375 27.459 18.21 27.5377 18.0339 27.5777ZM25.2339 23.3871L23.2326 21.1697C23.0607 20.9686 22.8234 20.8346 22.5625 20.7913C22.3016 20.7479 22.0337 20.7979 21.806 20.9326C21.5784 21.0673 21.4055 21.2779 21.3178 21.5275C21.2302 21.777 21.2334 22.0495 21.3268 22.297C21.3789 22.4373 21.4584 22.5658 21.5608 22.675L23.1763 24.475C23.1651 24.5897 23.1414 24.7033 23.1054 24.8125C23.0117 25.1311 22.798 25.401 22.5092 25.5651C22.1575 25.7958 21.7306 25.8828 21.3167 25.8081L19.9667 24.3748C19.8209 24.2216 19.6347 24.1128 19.4295 24.0612C19.2244 24.0096 19.0089 24.0174 18.8079 24.0835C18.7905 23.9742 18.7669 23.866 18.7371 23.7595C18.5513 23.1716 18.2058 22.647 17.7392 22.2441C17.4123 21.9458 17.0377 21.7043 16.6311 21.5297C16.6389 21.3204 16.6257 21.1109 16.5917 20.9042C16.4466 20.1381 16.0617 19.438 15.4926 18.9051C15.0788 18.4862 14.5673 18.1769 14.0042 18.0051C14.0098 17.8543 14.0042 17.7047 13.9873 17.5551C13.8822 16.7974 13.52 16.0988 12.9613 15.5762C12.4526 15.0437 11.7991 14.6718 11.0814 14.5063C10.8373 14.4592 10.5883 14.4422 10.3401 14.4557C10.2518 14.0378 10.0732 13.6443 9.81694 13.3026C9.52812 12.9275 9.16817 12.6131 8.75768 12.3773C8.34719 12.1415 7.89423 11.989 7.42473 11.9285C6.95523 11.868 6.4784 11.9007 6.02155 12.0247C5.5647 12.1487 5.13679 12.3616 4.76232 12.6512L4.72294 12.6827L3.33356 13.8527C2.68209 12.6664 2.37038 11.3233 2.4327 9.97131C2.49502 8.61928 2.92897 7.31062 3.68681 6.18922L3.71044 6.15547C4.32642 5.23703 5.13439 4.46322 6.07856 3.88747C7.8009 2.99048 9.77309 2.69318 11.6833 3.0426L12.2053 3.12585C11.4341 3.47336 10.8181 4.093 10.4751 4.86622C10.3093 5.29046 10.2304 5.7437 10.2431 6.19901C10.2559 6.65432 10.36 7.10243 10.5493 7.51672C10.8863 8.33181 11.5148 8.99217 12.3122 9.36905C13.1096 9.74593 14.0189 9.8123 14.8626 9.55522C16.3476 9.0051 18.0508 8.45272 18.6876 8.25135C18.7382 8.24968 18.7886 8.25943 18.8349 8.27988C18.8813 8.30033 18.9224 8.33095 18.9553 8.36947C19.5054 8.88697 26.1463 14.6998 28.9206 17.1175L29.1456 17.3098C29.3203 17.5928 29.3949 17.9262 29.3576 18.2567C29.3203 18.5871 29.1731 18.8955 28.9397 19.1323C28.7794 19.3051 28.5688 19.4232 28.3378 19.4698L26.3882 17.4932C26.176 17.2912 25.8936 17.1796 25.6007 17.1819C25.3077 17.1841 25.0271 17.3001 24.8181 17.5054C24.6091 17.7106 24.4879 17.989 24.4803 18.2819C24.4727 18.5748 24.5791 18.8591 24.7772 19.075L26.6402 20.9627C26.6481 20.9965 26.6571 21.0302 26.6672 21.0628L26.6807 21.0977C26.7651 21.3379 26.8162 21.5884 26.8326 21.8425C26.8638 22.0354 26.8472 22.233 26.7842 22.4179C26.7213 22.6029 26.6139 22.7696 26.4714 22.9033C26.1351 23.2183 25.6907 23.3916 25.2306 23.3871H25.2339Z" fill="#FF7427"/>
</svg>
