<svg width="54" height="40" viewBox="0 0 54 40" fill="none" xmlns="http://www.w3.org/2000/svg">
<path d="M17.5 22H29C30.3807 22 31.5 20.8807 31.5 19.5V19.5C31.5 18.1193 30.3807 17 29 17H17.5" stroke="#717171" stroke-width="1.5"/>
<path d="M17.5 14H19C20.3807 14 21.5 12.8807 21.5 11.5V11.5C21.5 10.1193 20.3807 9 19 9H17.5" stroke="#717171" stroke-width="1.5"/>
<path d="M34.75 2H23.25C22.2835 2 21.5 2.7835 21.5 3.75V15.25C21.5 16.2165 22.2835 17 23.25 17H34.75C35.7165 17 36.5 16.2165 36.5 15.25V3.75C36.5 2.7835 35.7165 2 34.75 2Z" stroke="#717171" stroke-width="1.5"/>
<path d="M26.9023 8.52254L28.9252 7.05342C28.9691 7.02157 29.0285 7.02161 29.0723 7.05352L31.0886 8.52203C31.1712 8.5822 31.2872 8.52319 31.2872 8.42099V2.25C31.2872 2.11193 31.1753 2 31.0372 2H26.9539C26.8158 2 26.7039 2.11193 26.7039 2.25V8.4214C26.7039 8.52352 26.8197 8.58255 26.9023 8.52254Z" stroke="#717171" stroke-width="1.5"/>
<path d="M16.4216 29.74H17.2516V34.45H16.4216V29.74ZM11.4116 34.92H17.2616V37.07H12.2416V38.34H11.4316V36.45H16.4416V35.58H11.4116V34.92ZM11.4316 38.03H17.5616V38.68H11.4316V38.03ZM10.3216 30.1H11.1316V31.41H13.7316V30.1H14.5516V34.06H10.3216V30.1ZM11.1316 32.05V33.39H13.7316V32.05H11.1316ZM25.1508 29.73H25.9808V38.79H25.1508V29.73ZM23.3708 31.8H25.3708V32.48H23.3708V31.8ZM18.8808 35.99H19.5508C20.9508 35.99 22.1008 35.95 23.4808 35.73L23.5608 36.42C22.1408 36.64 20.9808 36.69 19.5508 36.69H18.8808V35.99ZM18.8608 30.55H22.8108V33.79H19.7008V36.15H18.8808V33.11H21.9908V31.24H18.8608V30.55ZM23.3108 34.27H25.3108V34.95H23.3108V34.27ZM30.87 30.63H31.59V31.01C31.59 32.63 29.87 33.82 28.05 34.13L27.73 33.47C29.32 33.24 30.87 32.2 30.87 31.01V30.63ZM31.08 30.63H31.79V31.01C31.79 32.2 33.35 33.24 34.93 33.47L34.62 34.13C32.79 33.82 31.08 32.63 31.08 31.01V30.63ZM30.9 35.33H31.72V38.78H30.9V35.33ZM27.25 34.89H35.42V35.57H27.25V34.89ZM28.01 30.3H34.63V30.97H28.01V30.3ZM42.5292 29.74H43.3592V38.78H42.5292V29.74ZM39.8792 30.71H40.6992C40.6992 33.33 39.5192 35.62 36.4992 37.1L36.0592 36.43C38.6692 35.17 39.8792 33.25 39.8792 30.85V30.71ZM36.4692 30.71H40.2392V31.39H36.4692V30.71Z" fill="#717171"/>
</svg>
