<svg width="14" height="14" viewBox="0 0 14 14" fill="none" xmlns="http://www.w3.org/2000/svg">
<path d="M6.99999 11.76C4.36799 11.76 2.23999 9.63199 2.23999 6.99999C2.23999 4.36799 4.36799 2.23999 6.99999 2.23999C9.63199 2.23999 11.76 4.36799 11.76 6.99999C11.76 9.63199 9.63199 11.76 6.99999 11.76ZM6.99999 2.79999C4.67599 2.79999 2.79999 4.67599 2.79999 6.99999C2.79999 9.32399 4.67599 11.2 6.99999 11.2C9.32399 11.2 11.2 9.32399 11.2 6.99999C11.2 4.67599 9.32399 2.79999 6.99999 2.79999Z" fill="#9E95A2"/>
<mask id="path-2-inside-1_591_545" fill="white">
<path d="M6.43991 9.07202L4.00391 6.63602L4.39591 6.24402L6.43991 8.28802L9.60391 5.12402L9.99591 5.51602L6.43991 9.07202Z"/>
</mask>
<path d="M6.43991 9.07202L4.00391 6.63602L4.39591 6.24402L6.43991 8.28802L9.60391 5.12402L9.99591 5.51602L6.43991 9.07202Z" fill="#9E95A2"/>
<path d="M6.43991 9.07202L5.7328 9.77913L6.43991 10.4862L7.14701 9.77913L6.43991 9.07202ZM4.00391 6.63602L3.2968 5.92892L2.58969 6.63602L3.2968 7.34313L4.00391 6.63602ZM4.39591 6.24402L5.10301 5.53692L4.39591 4.82981L3.6888 5.53692L4.39591 6.24402ZM6.43991 8.28802L5.7328 8.99513L6.43991 9.70224L7.14701 8.99513L6.43991 8.28802ZM9.60391 5.12402L10.311 4.41692L9.60391 3.70981L8.8968 4.41692L9.60391 5.12402ZM9.99591 5.51602L10.703 6.22313L11.4101 5.51602L10.703 4.80892L9.99591 5.51602ZM7.14701 8.36492L4.71101 5.92892L3.2968 7.34313L5.7328 9.77913L7.14701 8.36492ZM4.71101 7.34313L5.10301 6.95113L3.6888 5.53692L3.2968 5.92892L4.71101 7.34313ZM3.6888 6.95113L5.7328 8.99513L7.14701 7.58092L5.10301 5.53692L3.6888 6.95113ZM7.14701 8.99513L10.311 5.83113L8.8968 4.41692L5.7328 7.58092L7.14701 8.99513ZM8.8968 5.83113L9.2888 6.22313L10.703 4.80892L10.311 4.41692L8.8968 5.83113ZM9.2888 4.80892L5.7328 8.36492L7.14701 9.77913L10.703 6.22313L9.2888 4.80892Z" fill="#9E95A2" mask="url(#path-2-inside-1_591_545)"/>
</svg>
