<svg width="54" height="40" viewBox="0 0 54 40" fill="none" xmlns="http://www.w3.org/2000/svg">
<path d="M19 18V4H26V11H33V12C33.7 12 34.37 12.13 35 12.35V8L29 2H19C17.89 2 17 2.89 17 4V18C17 18.5304 17.2107 19.0391 17.5858 19.4142C17.9609 19.7893 18.4696 20 19 20H27.35C27.13 19.37 27 18.7 27 18H19ZM28 3.5L33.5 9H28V3.5ZM37 17V19H34V22H32V19H29V17H32V14H34V17H37Z" fill="#717171"/>
<path d="M14.7412 30.12H20.5612V30.79H14.7412V30.12ZM13.7012 33.1H21.8912V33.78H13.7012V33.1ZM20.0212 30.12H20.8312V30.7C20.8312 31.35 20.8312 32.19 20.5912 33.31L19.7812 33.22C20.0212 32.12 20.0212 31.34 20.0212 30.7V30.12ZM14.6612 34.67H20.8612V36.97H15.5112V38.23H14.6812V36.33H20.0412V35.34H14.6612V34.67ZM14.6812 38.01H21.0912V38.68H14.6812V38.01ZM24.2804 30.46H24.9304V31.61C24.9304 32.93 24.2204 34.38 22.9104 34.99L22.4704 34.37C23.6304 33.83 24.2804 32.61 24.2804 31.61V30.46ZM24.4604 30.46H25.1104V31.61C25.1104 32.56 25.6804 33.85 26.8404 34.43L26.4704 35.1C25.0904 34.45 24.4604 32.87 24.4604 31.61V30.46ZM27.8404 30.46H28.4804V31.61C28.4804 32.93 27.8604 34.47 26.4704 35.1L26.1104 34.43C27.2704 33.87 27.8404 32.62 27.8404 31.61V30.46ZM28.0304 30.46H28.6704V31.61C28.6704 32.71 29.3104 33.86 30.4904 34.37L30.0404 34.99C28.7204 34.4 28.0304 33.04 28.0304 31.61V30.46ZM22.3904 36.88H30.5904V37.57H22.3904V36.88ZM37.6796 29.74H38.5096V38.78H37.6796V29.74ZM35.0296 30.71H35.8496C35.8496 33.33 34.6696 35.62 31.6496 37.1L31.2096 36.43C33.8196 35.17 35.0296 33.25 35.0296 30.85V30.71ZM31.6196 30.71H35.3896V31.39H31.6196V30.71Z" fill="#717171"/>
</svg>
