<svg width="22" height="22" viewBox="0 0 22 22" fill="none" xmlns="http://www.w3.org/2000/svg">
<path d="M16.3927 17.6889C14.7802 18.7116 12.9095 19.2532 11 19.25C6.05733 19.25 1.94516 15.6933 1.0835 11C1.4785 8.86579 2.55161 6.91599 4.14333 5.44042L1.27783 2.574L2.574 1.27783L20.7231 19.426L19.4269 20.7231L16.3927 17.6889ZM5.44133 6.7375C4.19548 7.87019 3.3274 9.35805 2.95441 11C3.24068 12.2526 3.8154 13.421 4.63283 14.4124C5.45026 15.4037 6.48782 16.1905 7.66292 16.7102C8.83802 17.2299 10.1182 17.4681 11.4016 17.4058C12.6849 17.3435 13.9361 16.9825 15.0553 16.3515L13.1963 14.4925C12.405 14.991 11.4677 15.2058 10.5382 15.1016C9.60875 14.9974 8.74228 14.5804 8.08093 13.9191C7.41959 13.2577 7.00262 12.3912 6.89843 11.4618C6.79423 10.5323 7.009 9.59503 7.5075 8.80367L5.44133 6.7375ZM11.8378 13.134L8.866 10.1631C8.70289 10.5783 8.6645 11.032 8.75554 11.4687C8.84658 11.9054 9.06309 12.306 9.37852 12.6215C9.69395 12.9369 10.0946 13.1534 10.5313 13.2445C10.968 13.3355 11.4226 13.2971 11.8378 13.134ZM19.0722 15.2102L17.7604 13.8985C18.3746 13.0257 18.8115 12.041 19.0465 11C18.7974 9.90881 18.329 8.87968 17.6697 7.97518C17.0105 7.07067 16.1742 6.30969 15.2116 5.73848C14.2491 5.16727 13.1805 4.79778 12.0707 4.65246C10.9609 4.50714 9.83314 4.58904 8.756 4.89316L7.3095 3.44667C8.45258 2.9975 9.69833 2.75 11 2.75C15.9427 2.75 20.0548 6.30667 20.9174 11C20.6366 12.5272 20.0043 13.9684 19.0722 15.2102ZM10.7461 6.88325C10.8298 6.87775 10.9144 6.875 11 6.875C11.5632 6.87492 12.1205 6.99019 12.6374 7.21368C13.1544 7.43718 13.6201 7.76417 14.0059 8.17452C14.3917 8.58486 14.6894 9.06986 14.8806 9.59962C15.0718 10.1294 15.1525 10.6927 15.1177 11.2548L10.7461 6.88325Z" fill="#393939"/>
</svg>
