<svg width="12" height="12" viewBox="0 0 12 12" fill="none" xmlns="http://www.w3.org/2000/svg">
<path d="M5.20785 1.67099C5.54865 1.04279 6.45045 1.04279 6.79065 1.67099L10.6907 8.87099C10.7647 9.0081 10.8019 9.1621 10.7986 9.31791C10.7953 9.47371 10.7516 9.62599 10.6718 9.75983C10.5919 9.89367 10.4787 10.0045 10.3432 10.0814C10.2077 10.1584 10.0545 10.1988 9.89865 10.1988H2.09985C1.94398 10.1988 1.79078 10.1583 1.65526 10.0813C1.51974 10.0042 1.40655 9.89334 1.32677 9.75942C1.24699 9.62551 1.20336 9.47317 1.20014 9.31733C1.19693 9.16148 1.23426 9.00748 1.30845 8.87039L5.20785 1.67099Z" fill="#BABABA"/>
</svg>
