<svg width="12" height="12" viewBox="0 0 12 12" fill="none" xmlns="http://www.w3.org/2000/svg">
<path d="M6.79215 10.329C6.45135 10.9572 5.54955 10.9572 5.20935 10.329L1.30935 3.12901C1.23527 2.9919 1.19807 2.8379 1.20137 2.68209C1.20468 2.52629 1.2484 2.37401 1.32823 2.24017C1.40806 2.10633 1.52128 1.99551 1.6568 1.91856C1.79232 1.84162 1.9455 1.80118 2.10135 1.80121H9.90015C10.056 1.80123 10.2092 1.84173 10.3447 1.91875C10.4803 1.99577 10.5935 2.10666 10.6732 2.24058C10.753 2.37449 10.7966 2.52683 10.7999 2.68267C10.8031 2.83852 10.7657 2.99252 10.6915 3.12961L6.79215 10.329Z" fill="#BABABA"/>
</svg>
